<svg 
  xmlns="http://www.w3.org/2000/svg" viewBox="0 0 95 95">
    <path d="M50,2.5A47.5,47.5,0,1,0,97.5,50,47.54,47.54,0,0,0,50,2.5ZM76.1,67.6A18.65,18.65,0,0,1,72.6,73c-5.7,5.7-21,.6-33.6-12S21.3,33.2,27,27.4a20.16,20.16,0,0,1,5.4-3.5A3.9,3.9,0,0,1,37,25.1l6.3,8a3.92,3.92,0,0,1-.5,5.4c-1.6,1.4-2.7,2.4-3,2.7-2.4,2.4,1.1,7.5,6.4,12.8S56.5,62.9,59,60.4c.3-.3,1.3-1.4,2.7-3a3.91,3.91,0,0,1,5.4-.5l8,6.3A3.55,3.55,0,0,1,76.1,67.6Z" 
          transform="translate(-2.5 -2.5)" 
          style="fill:#10B981"
     />
</svg>
