<svg xmlns="http://www.w3.org/2000/svg" viewBox="0 0 764.42 370.89">
    <defs>
        <clipPath id="clip-path" transform="translate(133.73 -10.38)">
            <path class="cls-1" d="M1.65 10.38h358.5v358.5H1.65z"/>
        </clipPath>
        <clipPath id="clip-path-2" transform="translate(133.73 -10.38)">
            <path class="cls-1" d="M2.37 189.29A179.25 179.25 0 1 0 181.62 10 179.25 179.25 0 0 0 2.37 189.29"/>
        </clipPath>
        <clipPath id="clip-path-3" transform="translate(133.73 -10.38)">
            <path class="cls-1" d="M-129.2 145.62h668.33v143.66H-129.2z"/>
        </clipPath>
        <clipPath id="clip-path-4" transform="translate(133.73 -10.38)">
            <path class="cls-1" d="M-103.47 210.85h732.3v71.55h-732.3z"/>
        </clipPath>
        <clipPath id="clip-path-5" transform="translate(133.73 -10.38)">
            <path class="cls-1" d="M158.99 249.5h25.59v7.34h-25.59z"/>
        </clipPath>
        <clipPath id="clip-path-6" transform="translate(133.73 -10.38)">
            <path class="cls-1" d="M169.05 235.5h6.22v4.24h-6.22z"/>
        </clipPath>
        <clipPath id="clip-path-7" transform="translate(133.73 -10.38)">
            <path class="cls-1" d="M-133.73 247.44h587.35v124.28h-587.35z"/>
        </clipPath>
        <clipPath id="clip-path-8" transform="translate(133.73 -10.38)">
            <path class="cls-1" d="M100.51 280.12h530.18v101.15H100.51z"/>
        </clipPath>
        <clipPath id="clip-path-9" transform="translate(133.73 -10.38)">
            <path class="cls-1" d="M523.74 282.87s-238.26-11.12-423.23 98.4h423.23z"/>
        </clipPath>
        <clipPath id="clip-path-10" transform="translate(133.73 -10.38)">
            <path class="cls-1" d="M-95.29 280.03h498.47v98.72H-95.29z"/>
        </clipPath>
        <clipPath id="clip-path-11" transform="translate(133.73 -10.38)">
            <path class="cls-1" d="M424.61 346.26h24.15v4.57h-24.15z"/>
        </clipPath>
        <clipPath id="clip-path-12" transform="translate(133.73 -10.38)">
            <path class="cls-1" d="M434.33 294.58h13.63v36.59h-13.63z"/>
        </clipPath>
        <clipPath id="clip-path-14" transform="translate(133.73 -10.38)">
            <path class="cls-1" d="M234.8 192.69h68.54v80.82H234.8z"/>
        </clipPath>
        <clipPath id="clip-path-15" transform="translate(133.73 -10.38)">
            <path class="cls-1" d="M261.13 206.39h42.2v59.68h-42.2z"/>
        </clipPath>
        <clipPath id="clip-path-16" transform="translate(133.73 -10.38)">
            <path class="cls-1" d="M270.86 214.05h25.08v32.59h-25.08z"/>
        </clipPath>
        <clipPath id="clip-path-17" transform="translate(133.73 -10.38)">
            <path class="cls-1" d="M272.17 227.27h19.37v18.85h-19.37z"/>
        </clipPath>
        <clipPath id="clip-path-18" transform="translate(133.73 -10.38)">
            <path class="cls-1" d="M241.24 207.36h36.81v31.17h-36.81z"/>
        </clipPath>
        <clipPath id="clip-path-19" transform="translate(133.73 -10.38)">
            <path class="cls-1" d="M252.34 257.89h28.94v6.85h-28.94z"/>
        </clipPath>
        <clipPath id="clip-path-20" transform="translate(133.73 -10.38)">
            <path class="cls-1" d="M-26.89 186.94h94.06v71.72h-94.06z"/>
        </clipPath>
        <clipPath id="clip-path-21" transform="translate(133.73 -10.38)">
            <path class="cls-1" d="M50.67 233.6h13.74v14.45H50.67z"/>
        </clipPath>
        <clipPath id="clip-path-22" transform="translate(133.73 -10.38)">
            <path class="cls-1" d="M-16.79 194.05h46.18v26.07h-46.18z"/>
        </clipPath>
        <clipPath id="clip-path-23" transform="translate(133.73 -10.38)">
            <path class="cls-1" d="M-10.79 211.5h29.32v8.1h-29.32z"/>
        </clipPath>
        <clipPath id="clip-path-24" transform="translate(133.73 -10.38)">
            <path class="cls-1" d="M33.55 206.67h25.16v32.56H33.55z"/>
        </clipPath>
        <clipPath id="clip-path-25" transform="translate(133.73 -10.38)">
            <path class="cls-1" d="M34.84 219.87H54.2v18.9H34.84z"/>
        </clipPath>
        <clipPath id="clip-path-26" transform="translate(133.73 -10.38)">
            <path class="cls-1" d="M9.03 249.32h24.93v7.75H9.03z"/>
        </clipPath>
        <clipPath id="clip-path-27" transform="translate(133.73 -10.38)">
            <path class="cls-1" d="M11.45 234.14H25.9v13.64H11.45z"/>
        </clipPath>
        <clipPath id="clip-path-28" transform="translate(133.73 -10.38)">
            <path class="cls-1" d="M286.85 192.39h109.61v91.7H286.85z"/>
        </clipPath>
        <clipPath id="clip-path-29" transform="translate(133.73 -10.38)">
            <path class="cls-1" d="M286.85 192.39h71.24v88.17h-71.24z"/>
        </clipPath>
        <clipPath id="clip-path-30" transform="translate(133.73 -10.38)">
            <path class="cls-1" d="M298.28 200.44h52.24v29.48h-52.24z"/>
        </clipPath>
        <clipPath id="clip-path-31" transform="translate(133.73 -10.38)">
            <path class="cls-1" d="M305.06 220.17h33.16v9.17h-33.16z"/>
        </clipPath>
        <clipPath id="clip-path-32" transform="translate(133.73 -10.38)">
            <path class="cls-1" d="M308.37 213.02h47.74v67.5h-47.74z"/>
        </clipPath>
        <clipPath id="clip-path-33" transform="translate(133.73 -10.38)">
            <path class="cls-1" d="M319.38 221.69h28.37v36.86h-28.37z"/>
        </clipPath>
        <clipPath id="clip-path-34" transform="translate(133.73 -10.38)">
            <path class="cls-1" d="M320.86 236.64h21.91v21.32h-21.91z"/>
        </clipPath>
        <clipPath id="clip-path-35" transform="translate(133.73 -10.38)">
            <path class="cls-1" d="M310.06 249.68h18.55v19.49h-18.55z"/>
        </clipPath>
        <clipPath id="clip-path-36" transform="translate(133.73 -10.38)">
            <path class="cls-1" d="M369.73 244.85h26.73v37.01h-26.73z"/>
        </clipPath>
        <clipPath id="clip-path-37" transform="translate(133.73 -10.38)">
            <path class="cls-1" d="M374.19 250.54h18.54v19.49h-18.54z"/>
        </clipPath>
        <clipPath id="clip-path-38" transform="translate(133.73 -10.38)">
            <path class="cls-1" d="M333.2 209.24h52.24v29.48H333.2z"/>
        </clipPath>
        <clipPath id="clip-path-39" transform="translate(133.73 -10.38)">
            <path class="cls-1" d="M339.98 228.97h33.16v9.17h-33.16z"/>
        </clipPath>
        <clipPath id="clip-path-40" transform="translate(133.73 -10.38)">
            <path class="cls-1" d="M328.76 225.28h28.46v36.83h-28.46z"/>
        </clipPath>
        <clipPath id="clip-path-41" transform="translate(133.73 -10.38)">
            <path class="cls-1" d="M330.21 240.21h21.9v21.38h-21.9z"/>
        </clipPath>
        <clipPath id="clip-path-42" transform="translate(133.73 -10.38)">
            <path class="cls-1" d="M342.77 273.69h36.73v8.7h-36.73z"/>
        </clipPath>
        <clipPath id="clip-path-43" transform="translate(133.73 -10.38)">
            <path class="cls-1" d="M294.94 257.28h16.35v15.42h-16.35z"/>
        </clipPath>
        <clipPath id="clip-path-44" transform="translate(133.73 -10.38)">
            <path class="cls-1" d="M0 249.77h366.41v126.32H0z"/>
        </clipPath>
        <clipPath id="clip-path-45" transform="translate(133.73 -10.38)">
            <path class="cls-1" d="M0 0h366.41v126.32H0z"/>
        </clipPath>
        <clipPath id="clip-path-46" transform="translate(133.73 -10.38)">
            <path class="cls-1" d="M197.64 168.36h84.47v80.48h-84.47z"/>
        </clipPath>
        <clipPath id="clip-path-47" transform="translate(133.73 -10.38)">
            <path class="cls-1" d="M257.77 157.99h10.12v14.1h-10.12z"/>
        </clipPath>
        <clipPath id="clip-path-48" transform="translate(133.73 -10.38)">
            <path class="cls-1" d="M219.13 153.45h10.39v13.01h-10.39z"/>
        </clipPath>
        <clipPath id="clip-path-49" transform="translate(133.73 -10.38)">
            <path class="cls-1" d="M194.23 197h8.04v9.38h-8.04z"/>
        </clipPath>
        <clipPath id="clip-path-50" transform="translate(133.73 -10.38)">
            <path class="cls-1" d="M277.33 200.82h7.62v9.72h-7.62z"/>
        </clipPath>
        <style>
            .cls-1,.cls-12{fill:none}.cls-6{clip-path:url(#clip-path-2)}.cls-9{fill:#1b0a33}.cls-13{opacity:.29}.cls-12{stroke:#1b0a33;stroke-width:.8px;stroke-miterlimit:10}.cls-13{mix-blend-mode:darken}.cls-16,.cls-43,.cls-49{mix-blend-mode:multiply}.cls-21{fill:#9a71ea}.cls-26{fill:#2b2b2b}.cls-43{opacity:.55}.cls-49{opacity:.35}.cls-73{fill:#fff}.cls-74{opacity:.65}
        </style>
    </defs>
    <g style="isolation:isolate">
        <g id="Capa_1" data-name="Capa 1">
            <g style="opacity:.85">
                <g style="clip-path:url(#clip-path)">
                    <path d="M1.65 189.63A179.25 179.25 0 1 1 180.9 368.88 179.25 179.25 0 0 1 1.65 189.63" transform="translate(133.73 -10.38)" style="fill:#534472"/>
                </g>
            </g>
            <g class="cls-6">
                <path class="cls-9" d="M-129.2 241.06s42.2-9.2 75.56-33.06 66.28 10.58 94.56 7.59 115.42-68.32 132.85-69.93 104.28 61.71 121 62.87 55-15.84 68.4-15.18 37.53 25.06 51.3 22.74 38.75-24.56 53.28-22.74 71.39 50 71.39 50v46H-129.2z" transform="translate(133.73 -10.38)"/>
                <path class="cls-9" d="M-89.53 252.34s104.85-28.62 125.77-26.87 53.22 16.84 77.45 17.42S232.33 208.18 249 211s35.87 20.33 55 20.59 44.45-19.31 62-12.43 112.26 48.58 124.46 46.9S544 247 560.28 250.45s68.55 31.95 68.55 31.95h-355l-377.34-11z" transform="translate(133.73 -10.38)"/>
                <path class="cls-9" d="m242.58 247.78-18.52-.43 3.6-40.11 13.15.3 1.77 40.24z"/>
                <path class="cls-9" d="m234.45 198.08-9.61 10.19 18.74.43-9.13-10.62z"/>
                <path class="cls-9" d="m106.7 213.38-2.42-2.54a2.09 2.09 0 0 1 0-2.94l15.26-15.21a2.11 2.11 0 0 1 3 0l3 3.19a2.1 2.1 0 0 1-.1 3l-15.88 14.55a2.1 2.1 0 0 1-3-.1m-12.22 7 2.43 2.54a2.11 2.11 0 0 1 0 2.95L81.47 241a2.1 2.1 0 0 1-3 0l-3-3.2a2.11 2.11 0 0 1 .1-3l15.88-14.54a2.11 2.11 0 0 1 3 .09" transform="translate(133.73 -10.38)"/>
                <path class="cls-12" d="m250.27 191.18-28.64 27.36"/>
                <path class="cls-9" d="m104 223 2.54-2.43a2.1 2.1 0 0 1 2.94 0l15.21 15.26a2.11 2.11 0 0 1 0 3l-3.23 3.17a2.1 2.1 0 0 1-3-.1L103.9 226a2.11 2.11 0 0 1 .1-3m-6.95-12.32-2.54 2.42a2.1 2.1 0 0 1-3 0l-15.2-15.26a2.1 2.1 0 0 1 0-3l3.2-3.05a2.11 2.11 0 0 1 3 .1l14.54 15.88a2.11 2.11 0 0 1-.09 3" transform="translate(133.73 -10.38)"/>
                <path class="cls-12" d="m249.55 222.49-27.35-28.63"/>
                <path class="cls-9" d="M50.49 250s5.28-3.55 9.55-3.82 6.36 2 7.75 1.46 9.11-4.79 10.94-4.75 4.19 3.59 4.94 3.77 7-.62 7.61.4 2.15 3 2.15 3l12.67 1.24s14.23-3.33 16.78-3.49 7.74 0 7.74 0 2.42-5.65 6.23-5.41 5.68 4.92 5.68 4.92 4.76-1.45 6.55.56l1.78 2a25.29 25.29 0 0 0 7.29 1.64c3.35.08 14.15 1.26 14.15 1.26l-50.87 16.9-61-12.64z" transform="translate(133.73 -10.38)"/>
                <path class="cls-9" d="m320.85 231.82.1-4.35-5.83-8.18-8.99-3.22-9.12 2.81-6.2 7.9-.1 4.35 30.14.69z"/>
                <path class="cls-9" d="m318.58 228.23-4.92-6.89-7.59-2.72-7.7 2.37-5.23 6.66-.42 18.23 25.44.59.42-18.24z"/>
                <g class="cls-13">
                    <path class="cls-9" transform="rotate(-88.69 233.352 179.574)" d="M168.41 240.45h6.76v25.45h-6.76z"/>
                </g>
                <path class="cls-9" d="M175.27 236.7a3.11 3.11 0 1 1-3-3.18 3.11 3.11 0 0 1 3 3.18" transform="translate(133.73 -10.38)"/>
                <g class="cls-13">
                    <path class="cls-9" d="M172.14 237.61a3.1 3.1 0 0 1-2.86-2.11 3.09 3.09 0 0 0-.23 1.06 3.11 3.11 0 1 0 6-.93 3.11 3.11 0 0 1-3 2" transform="translate(133.73 -10.38)"/>
                </g>
                <path class="cls-9" transform="rotate(-88.69 233.392 177.323)" d="M166.15 243.7h11.37v14.47h-11.37z"/>
                <path class="cls-9" d="m298.67 234.64 13.81 11.34m.25-11.02-14.31 10.7"/>
                <path class="cls-9" d="M181.27 250.91s20-4.75 24.78-3.27l4.77 1.48a8.35 8.35 0 0 0 9 .38c5-2.8 7.79-5.05 10.26-2.92s5.58 6 7 5.6 4.45-3.69 5.74-.76 4.86 5.41 4.86 5.41l-53.16 5.42s-21.76-3.84-19.68-5.62 6.45-5.72 6.45-5.72" transform="translate(133.73 -10.38)"/>
                <g style="clip-path:url(#clip-path-7)">
                    <path d="M-133.73 251.69s305.78-23.11 587.35 38.52v81.52h-582.87z" transform="translate(133.73 -10.38)" style="fill:#473568"/>
                </g>
                <g style="opacity:.24">
                    <g style="clip-path:url(#clip-path-8)">
                        <path class="cls-21" d="M523.74 282.87s-238.26-11.12-423.23 98.4h423.23z" transform="translate(133.73 -10.38)"/>
                        <path class="cls-21" d="M523.74 282.87s-238.26-11.12-423.23 98.4h423.23z" transform="translate(133.73 -10.38)"/>
                        <g style="clip-path:url(#clip-path-9)">
                            <path class="cls-21" d="M133.05 379.06h-8.78c4.07-26.74 68.43-42.68 89.63-49.88 40.95-13.9 83.1-26 125.64-34.65l4.85-.9c-41.54 8.88-82.66 21.11-122.6 35.11-22.16 7.77-83.07 23.4-88.74 50.29" transform="translate(133.73 -10.38)"/>
                            <path class="cls-21" d="m169.78 378.45-12.06.25c8.28-27 60.55-42 84.21-51a959.78 959.78 0 0 1 112.94-36l4.12-.79a930.34 930.34 0 0 0-107.88 36.28c-23.56 9.47-72.84 24.6-81.33 51.28" transform="translate(133.73 -10.38)"/>
                            <path class="cls-21" d="m215.93 377.21-14.61.42c8-25.6 50.08-41.3 72.65-51.68a864.33 864.33 0 0 1 94.09-36.79l3.64-.68a851.29 851.29 0 0 0-87.53 36.93c-21.61 10.64-61.22 27.08-68.24 51.8" transform="translate(133.73 -10.38)"/>
                            <path class="cls-21" d="m269.06 375.51-16.44.54c5-23.51 37.15-40.35 56.54-51.91C332 310.51 356 298.84 379.9 287c1.36-.25 2-.36 3.38-.59-21 12.41-42.71 23.78-63.09 37.22-18.32 12.09-47 29-51.13 51.89m57.64-2.01-17.53.61c1.79-38.4 58-63.93 82-89 1.34-.21 2-.3 3.36-.49-18.25 28.9-68 50.66-67.8 88.86m59.7-2.13-17.9.65c.55-19.16 7.77-34.8 17.22-51.42 6.24-11 17.55-24 16.81-37l3.56-.4c4.69 11.64-4.28 26.06-8.55 36.89-6.74 17.07-11.85 32.82-11.14 51.27m59.36-2.1-17.53.62c-3.14-17.13-2.67-33.48-2.85-50.82-.12-11.57.95-29.08-10.48-36.68 1.56-.14 2.36-.2 4-.32 25.22 12.85 21.23 64.69 26.87 87.2m56.54-1.93-16.44.54c-12.16-32.44-22.78-69.29-56.89-86.44l4.65-.24c37.1 16.15 54.4 51.73 68.68 86.14m51.3-1.58-14.62.42c-16.51-38.79-52.44-71.33-93.45-85.43l5.54-.15c41.88 13.26 85.61 44.9 102.53 85.16" transform="translate(133.73 -10.38)"/>
                            <path class="cls-21" d="M597.24 364.67c-4.65.09-7.07.14-12.07.26-15.73-43.23-77.59-72.86-119.78-84.62l6.66-.08c41.48 11.2 111.05 40.24 125.19 84.44" transform="translate(133.73 -10.38)"/>
                            <path class="cls-21" d="M630.69 364.28h-8.78c-3.3-21.86-30.11-38.15-47.9-48.9a316.31 316.31 0 0 0-84.79-35.28h8a333.24 333.24 0 0 1 86.27 35.3c17.25 10.18 46 26.87 47.19 48.86" transform="translate(133.73 -10.38)"/>
                        </g>
                        <path class="cls-21" d="M523.74 282.87s-238.26-11.12-423.23 98.4h423.23z" transform="translate(133.73 -10.38)"/>
                        <path class="cls-21" d="M228.12 324.81c2.79-.65 143-42.25 295.62-38v-4s-144.38-6.74-295.62 41.94" transform="translate(133.73 -10.38)"/>
                    </g>
                </g>
                <g style="opacity:.18">
                    <g style="clip-path:url(#clip-path-10)">
                        <path d="M-95.29 280.35s280.61-11.13 498.47 98.4H-95.29z" transform="translate(133.73 -10.38)" style="fill:#5a25ad"/>
                    </g>
                </g>
                <path class="cls-26" d="M434.14 348.51a10.18 10.18 0 0 0 .54-4.59 5.9 5.9 0 0 0-1.82-4l.49-.7s1.82 1.61 2.49 1.28a4.79 4.79 0 0 0 1.44-5.75l-1.4-2.77 1.11-.21s1.12 2.44 1.7 2.52 1.2-1.93 1.2-1.93l2 .49s-2.9 3.93-3 5-1.2 2.74-.21 2.94a3.2 3.2 0 0 0 2.07-.49l.75 1.36s-2.57.5-2.9 1.16 0 5.67 0 5.67a7 7 0 0 1-4.55 0" transform="translate(133.73 -10.38)"/>
                <path class="cls-26" d="M435.3 345.56s-13.16-.72-10.28-4.22c1.72-2.1 2.33-3 1.84-3.85s0-3.75 1-4.54-.45-6.39.62-7.87 3.48-5 3-7.7.37-4.1 1.24-6.33-3-3.36.87-7.58c.65-.71 1.61-5 .87-7.82s2.73.56 3.85 3.88.87 8.66 2.36 10.27 3.75 3.84 1.74 5.34 3 5.34 2.35 7.08-.51 4.47.06 5.34 5 2.21 2.3 5.39-.6 3.92.88 4.91 3.1 5-1.5 6-7.94 1.82-11.17 1.74m13.42 2.95c0 1.26-5.4 2.29-12.07 2.29s-12.07-1-12.07-2.29 5.4-2.29 12.07-2.29 12.07 1 12.07 2.29" transform="translate(133.73 -10.38)"/>
                <path class="cls-26" d="M438.28 304c.74 4.3-.83 4.06 0 5.3s3 1.82 2.15 2.81-3.06 3.64-1.41 5.05 4.64 1.9 3.73 4.88-2.9 5.22-1.16 5.8c1.58.52 5 1.49 6.36 3.36.15-1.94-2.72-2.93-3.16-3.61-.57-.87-.68-3.6-.06-5.34s-4.37-5.58-2.35-7.08-.25-3.72-1.74-5.33-1.25-7-2.36-10.28-4.6-6.73-3.85-3.88a10.27 10.27 0 0 1 .27 2.58 9.77 9.77 0 0 1 3.58 5.74" transform="translate(133.73 -10.38)"/>
            </g>
            <g class="cls-6">
                <g style="opacity:.79">
                    <g style="clip-path:url(#clip-path-14)">
                        <g style="clip-path:url(#clip-path-15)">
                            <path class="cls-9" d="M280.9 246.6c-2-.42-2.64 3.36-4.95 1.74-.72-.5-.54-1.63-1.25-2.08s-2 0-2.77-.2c-.49-.13-1.49-.49-1.76-1-.17-.34.23-.83.14-1s-.49-.69-.61-1c-.47-1.09-.94-.64.15-1.91.62-.73 1.38-.73 1.06-1.78a5.23 5.23 0 0 0-2-1.53c-1.06-.25-2.77 1.05-3.64.55s-.27-1.68-.94-2.32c-1-1-3.32-.11-3.2-2.14.07-1.13 1.58-1.83 2.09-2.73s0-2 .45-2.77c.82-1.64 2.52-1 1.34-3.11-.86-1.56-2.62-2.9-2.24-5s3.34-1.78 3.94-3.66c.37-1.14-1.08-.91.44-1.65.82-.4 2.1.24 3 .13 2.59-.34 1.54-1.73 2.3-3.5.27-.63 1.63-2.1 2.44-2 .54 0 1.13 1.18 1.85 1.32.92-1.88 0-2.82 2.29-3 .74 0 1.26.27 1.87-.07s.54-1.42 1.55-1.52 2.89 1.49 3.71 1.94c1.24.66 1.52.84 1.51 2.32 2.1-.35 2.64-2.09 2.94.8.25 2.42.44 2.59 3 1.47.5 2.33 3.93-.34 5 1.42.51.86-.45 1.95-.45 2.79 0 1.1.59.9.75 1.66.21 1.06-.56 2-.22 3.1a22.73 22.73 0 0 0 1.19 2c.75 1.4.89 1.11 2.15 2 .68.47 1.49.56 1.33 1.68-.29 2.07-3.28 2.31-2.26 4.78.16.38.88.44 1 .81s-.16 1-.15 1.46c0 1 .62 2.11.66 3 .05 1.08-.2.64-1.1 1.54a6.62 6.62 0 0 0-1.82 3.72c-.55 2.06-1.72 3.92-4.08 2.43-1.33 2.26-3.33 2-4.83 3.68-1.11 1.25-2.42 2.84-4.37 1.7-.66-.39-.68-1.21-1.19-1.62s-1.05-.41-1.35-.64c-.82-.61-2.74-3-3-1.79" transform="translate(133.73 -10.38)"/>
                            <g class="cls-16">
                                <path class="cls-9" d="M280.73 246.1a3.44 3.44 0 0 0 0-1c-.75 0-2.21.07-2.8-.49s-.24-1.39-.66-2.15-1.8-1.19-2.55-1.75a4.34 4.34 0 0 1-1.46-2c-.57-1.11-2.42-2.9-2.36-4.11 0-.9 1.06-1 1.14-1.82s-.77-1.38-1-2.12c3.82-.62-.19-4.52.11-6.12 1.72-.11 2.17.12 3.2-1.3s.6-2 .54-3.7c.86 0 2.55.14 3.14-.7s-.24-1.65-.06-2.32a2.38 2.38 0 0 1 1.73-1.67c1-.09 1.16.89 2 1 1.46.11 2.52-3.09 4-1.15.78 1-.49 1.21 1.07 1.78a14 14 0 0 0 3.56.3c-.36 1.35-.54 1.76.56 2.38.53.3 1.14-.16 1.57.31s0 1.49.08 1.94c.28 2.78 1.44 3.86 3.4 5.36-.58 1.66-2.63 1.65-2.39 3.67.12 1 1.73 2.24 1.62 3.21-.08.72-1.12.9-1.36 1.57-.39 1.07.37 1.65.52 2.63.25 1.68-.33 1.79-1.77 2.53-1.14.59-2.77.83-3 2.35-.17 1.25 1.08 2.07-.29 3-1.74 1.17-4.2-.5-5.9-.1 0 .34-.21.62-.21 1a3.06 3.06 0 0 1-2.45-.45" transform="translate(133.73 -10.38)"/>
                            </g>
                            <g class="cls-16">
                                <path class="cls-9" d="M291.47 237.45c-.17-1.07-.36-1.55-1.55-1.52-.41 0-.86.39-1.21.35s-.23-.26-.51-.43c-.78-.48-2 .71-2.69.28-.41-.24-.47-1-.53-1.41a22.9 22.9 0 0 0-.29-2.46 5.19 5.19 0 0 1-.16-2.11c.06-.5.22-1.12-.15-1.53s-.71-.26-1-.54-.2-.58-.39-.71c-.37-.27-1.27.11-1.74.12a5.64 5.64 0 0 0-1.3 0 1.34 1.34 0 0 0-.86 1.55c.17 1 .43 1.25-.44 2-.47.42-1.3.59-1.47 1.25-.1.38.09.72-.09 1.09s-.57.42-1 .44c-.9 0-1 .25-1.69.68-.46.28-1.11.15-1.52.47s-.07.67 0 1.19c.11.71-.33.68-.72 1a12.46 12.46 0 0 1 1.05 1.52 4.41 4.41 0 0 0 1.46 2c.75.56 2.07.87 2.55 1.75s-.06 1.47.66 2.15 2.05.52 2.8.49a6.58 6.58 0 0 1 .06.69 4.88 4.88 0 0 1 2.41 0 1.08 1.08 0 0 1 .18.11.91.91 0 0 0 .05-.33c1.7-.4 4.16 1.27 5.9.1 1.37-.92.12-1.74.29-3a2.12 2.12 0 0 1 1.35-1.64 2.75 2.75 0 0 1 .18-.89 4.63 4.63 0 0 0 .36-2.74" transform="translate(133.73 -10.38)"/>
                            </g>
                            <path class="cls-9" d="M280.27 265.75c.19-3.6.76-7.66.39-11.19-.21-1.94 0-4.83-.08-6.8-.1-1.7.1-3.81-.76-5.29-1.06-1.83-3.1-3.06-4.32-4.74 1.68-1.75 4.42 4.72 6.32 4.18.08-2.56.06-5 .28-7.56.13-1.56-.3-4.31.27-5.74 1.74 1 .95 11.73 1.15 13.81 1.85-1 3.34-4.7 5.86-4.66 0 1.35-2.52 2.77-3.73 4.41s-2 5.15-2.21 7.07a63.33 63.33 0 0 0-.09 10.49 24.13 24.13 0 0 0 1.32 6 7.25 7.25 0 0 1-4.4.05" transform="translate(133.73 -10.38)"/>
                        </g>
                        <path class="cls-9" d="M266.07 238.28c-.06-.62 1.53-.94 2-.81.93.27.45 1.48.59 2.13.22 1.08 1.47 1 2.23.63a6.3 6.3 0 0 0 1.31-.44c.2-.3-.16-.82.05-1.11s1-.32 1.35-.44.66-.21 1-.35a1.63 1.63 0 0 0 .84-.64c.2-.34.14-.64.53-.86a1.73 1.73 0 0 1 2 0c.74.54 1.65.07 2.52 0 .71 0 1.27-.17 1.37-1s-.85-1.08-.57-1.78 1.22-.56 1.54-1.19c.15-.29.18-.71.43-1s1-.43 1.16-.82c.29-.84-1.09-1.38-1.23-2.18a1.27 1.27 0 0 1 .19-1c.17-.24.8-.45.81-.79s-.55-.65-.63-1a1.61 1.61 0 0 1 .19-1.2 3.15 3.15 0 0 1 1.2-.74 1.57 1.57 0 0 0 .82-.84c.35-.58.54-.76-.23-1-.44-.13-.94-.09-1.35-.23a1.42 1.42 0 0 1-.83-.83c-.18-.73.42-.81.78-1.3a4.67 4.67 0 0 1 .38-.6c.17-.18.32-.17.45-.38a1.24 1.24 0 0 0 0-1.35c-.38-.35-.8-.27-1.06-.82a2.26 2.26 0 0 1 0-1.75c-.55-.21-.94.11-1.14-.66-.09-.37.16-1.33-.05-1.63s-1-.1-1.28 0c-.45.19-.63.55-1.18.49s-.87-.63-.9-1.22-.09-1.05.38-1.55a4.87 4.87 0 0 0 .61-.59c.12-.18.11-.37.21-.54.24-.42.83-.74.91-1.25s-.63-.72-1.11-.79a2.19 2.19 0 0 1-1.65-1.13c-.48-.77.24-1.06.62-1.67s0-.58-.38-1-.28-1.34-.2-1.8.28-.65.08-1-.57-.37-.87-.48c-.64-.22-1.14-.1-1.35-.82-.17-.57-.16-1.17-.33-1.75a2 2 0 0 0-1.1.06c-.7.28-1 .75-1.59-.05a4.13 4.13 0 0 1-.69-1.65 2 2 0 0 0-.75-1.31 1.14 1.14 0 0 0-1.41-.2 2 2 0 0 0-.79.6c-.12.16-.14.36-.3.48a2.61 2.61 0 0 1-1.47.11c-1-.13-.62-.64-.79-1.35a9.21 9.21 0 0 0-1.39 0c-.54 0-.41 0-.57-.44a.78.78 0 0 0-.2-.68 2.08 2.08 0 0 0-.7-.19 1.57 1.57 0 0 0-1.66.36c-.2.28-.08.72-.39 1a2.6 2.6 0 0 1-1 .39c-.54.1-2.93.1-2.79-.76a1.16 1.16 0 0 0-1.3.45c-.23.41 0 .81 0 1.23-.19 1.14-2 .58-2.57.28a.91.91 0 0 0-.78-.16l-1 .38a7.13 7.13 0 0 1-1.38.25 10.27 10.27 0 0 1-1.42.38c-.36 0-.82-.28-1.13-.18a3.89 3.89 0 0 1-1.95 2.89 3.62 3.62 0 0 1-1.27.07 10.34 10.34 0 0 0-1.31-.24c-1.18.16-1 1.87-.85 2.62a3.35 3.35 0 0 1-.76 2.87c-.33.25-.8.23-1.05.57a2 2 0 0 0-.27 1.21c0 1.21.86 2.18-.22 3.23-.4.39-1 .43-1.38.81s-.37.73-.76 1.07-.61.4-.62.94c0 .72.55 1.27.45 2s-.6 1-1 1.51a2.32 2.32 0 0 0-.43 1.52 14.23 14.23 0 0 1-.06 3.13 1.15 1.15 0 0 1-.89.94 6.94 6.94 0 0 1-.84.31c-.2.05-.59 0-.76 0-.57.28.34.78.26 1.22 0 .23-.29.19-.44.35a.84.84 0 0 0 0 1c.18.34.49.59.59 1s-.07.7.05 1c.4 1 1.7.4 2.38.38.45.39.26 1.56 0 2s-.53.44-.66.89-.21.89.21 1.08c.22.1.55-.12.71 0 .32.18.14.63.17.94.13 1.31 1.12.29 1.83.29.31.67 0 1.74.82 2.12s2.43-.48 3.38-.68c.69-.15 1.2-.26 1.7.28s1.14 1.28 1 2c-.11.53-.72 1-.58 1.57.08.34.5.63.79.77s.91.07 1.11.24 0 .35.1.53a2.37 2.37 0 0 0 1.27 1.18c1 .49 1.48 0 2.28-.46.44.4.66 1 1.21 1.26a2.2 2.2 0 0 0 2.2-.2c.36-.23.64-.62 1-.83a2.78 2.78 0 0 1 1.68-.18c1.3.25.71 2 2 2.23a1.82 1.82 0 0 0 1.35-.2 2.22 2.22 0 0 0 1-1.25c-.54-.25.17-.66.44-.82a26.61 26.61 0 0 1 3.11-1.21" transform="translate(133.73 -10.38)"/>
                        <path class="cls-9" d="M266.37 237.89a8.94 8.94 0 0 1 4.95-1.42c.93 0 1.6.13 2.34-.5a11 11 0 0 0 1.56-2.09c1.37-1.83 3.73-2.86 1.58-5.32-.54-.61-1.6-1.14-1.88-1.94s.09-.69.36-1.32a10.61 10.61 0 0 1 1.63-3.15c1.12-1.33 1.5-2.32.76-4-.43-1-1.18-1.76-1.53-2.74s-.43-1.82-.75-2.7A6.1 6.1 0 0 0 272 209c-.94-.49-2.08-1.78-3.17-1.66-.43 0-.89.52-1.28.7a3.1 3.1 0 0 1-2.4.23c-1.59-.39-3.13-1.43-4.83-.67-1.31.59-2.11 1.88-3.54 2.45-2.12.84-2.41 1.65-2.94 3.76s-2.6 2.48-4.22 3.54a4.21 4.21 0 0 0-1.65 1.67c-.33.79-.06 1.63-.51 2.4-.7 1.22-2.66 1.62-3.81 2.36-.95.61-2.12 1.28-2.35 2.45a2.12 2.12 0 0 0 1.28 2.68 7.58 7.58 0 0 1 2.59 1.13c.54.5.8 1.3 1.43 1.74s1.76.74 2.59 1.28a5.18 5.18 0 0 0 2.48.82c1.91.21 2 1.3 3.4 2.27a6.36 6.36 0 0 0 2.62.77 23.11 23.11 0 0 1 2.45.3c1 .37.59 1.1 1.77 1.26a4.93 4.93 0 0 0 1.4-.09c.85-.13 1.54-.19 3-.53" transform="translate(133.73 -10.38)"/>
                        <path class="cls-9" d="M274.06 217c-.86 2.64-3.08 5.09-4.63 7.37-1.89 2.76-2.56 4-2.56 7.39 0 8.78.67 17.86-.41 26.68-.59 4.87-.08 10.54-1.85 15a12.94 12.94 0 0 1-4.28-.3c.09-2.54 1.12-5.16 1.69-7.65a74.22 74.22 0 0 0 1.13-7.61c.73-6.05 2.31-24.94.57-27.46-1.5-2.19-6.53-4.21-8.61-5.54.06-.26 1-.13 2.6.31a17.08 17.08 0 0 1 6.76 3.69c.91-2.82.26-7.39.91-10.32.35-1.77.62-.82.6 0 .12 2.48.76 5 .51 7.49 1.62-3.43 4.79-5.91 6.68-9.09.93-1.26 1.23-.95.89 0" transform="translate(133.73 -10.38)"/>
                        <path class="cls-9" d="M251.84 264.44a2 2 0 0 0 .48-.79c.08-.48 0-.65-.48-.83a6.36 6.36 0 0 1-1-.3c-.33-.24-.11-.61 0-.85s.16-.11.15-.31-.18-.33-.23-.48a.53.53 0 0 1 .2-.75 2.82 2.82 0 0 1 1.78-.28c.45 0 .49 0 .48-.47s0-.54.4-.62c.17 0 .36 0 .51-.05s.14-.18.22-.24a2 2 0 0 1 .84-.37c.94-.27-.07-1.24.39-1.62a.8.8 0 0 1 .9 0c.2.1.63.38.86.35.39-.05.3-.54.3-.81 0-.44.27-.53.64-.67s.59-.08.95.26.44.51.92.4c.06-.28.07-.83.33-1a2.87 2.87 0 0 1 1 0c.36.1.33.47.51.73.33.47.58 0 .92-.22s.37-.23.62.09.42.55.64.83a2.05 2.05 0 0 0 .63.68c.29.16.83.19 1-.2s-.13-.49.46-.48a5.57 5.57 0 0 1 1.4.2c.23.06.74.29.95 0 0 0 .11-.38.15-.45.13-.26 0-.24.35-.28a.9.9 0 0 1 1 .48 4 4 0 0 0 .18.61c.16.15.89 0 1.08 0a.68.68 0 0 1 .91.52c.24.69.57 1.71 1.5 1.35.25-.1.31-.26.59-.26a2.94 2.94 0 0 1 .91.34 1.9 1.9 0 0 0 1 .16c.28-.09.28-.25.41-.49 0-.05.17-.29.2-.32.2-.19 0-.06.33-.15s1.42-.13 1.67.31.08.74.37 1.05.61.2.95 0a1.59 1.59 0 0 1 1.13-.1c.37.27 0 .91.16 1.26s.69.27 1.06.3.17 0 .31.06a3.09 3.09 0 0 1 .36 1.06c.12 1-.28 1.44-1.27 1.43h-2.35c-.76 0-1.47-.16-2.24-.16h-3.05c-1.27 0-2.51.16-3.78.16-2.63 0-5.25.05-7.87.15-.47 0-.9.15-1.37.18s-1.21 0-1.82 0h-2.82a14.15 14.15 0 0 0-4.78.47" transform="translate(133.73 -10.38)"/>
                        <g class="cls-16">
                            <path class="cls-9" d="M252.88 264.58c.28-.45.54-.81.32-1.31s-.75-.84-.84-1.32c-.12-.75.34-.36.71-.54s.92-.86.89-1.07c.24 0 .58.31.78.22s.11-.59.23-.8c.23-.43.63-.26 1-.39.61-.2.28-.25.89-.05 1.1.34 1.28-.58 2.2-1a1.5 1.5 0 0 1 1 0c.34.09.49.39.88.06.52.4 1 0 1.51 0 .32 0 .35.06.67-.1s.19-.31.51-.34c.59-.07.92.63 1.36.86.8.43 1.1 0 1.81-.34s.75.37 1.46.34 1.32-1.09 1.85-.45c.18.23 0 .44.31.65a1.7 1.7 0 0 0 .59.19 8.08 8.08 0 0 1 1.29.31c.56.23 1 .82 1.58.84s.34-.21.67-.33a1 1 0 0 1 .49 0c.62.32 0 1.2.88 1.24a2.2 2.2 0 0 0 .56-.1 5.45 5.45 0 0 1 .57-.26c1.33-.14 1 1.49 2.23 1.67.58.09.95 0 1.45.26.8.45.63.93-.25 1.21-2.55.83-5.35-.14-8 0a24.65 24.65 0 0 0-3.64.25 15.5 15.5 0 0 1-1.77.5 8.18 8.18 0 0 1-1.84-.27 17.88 17.88 0 0 0-4.07 0 9.17 9.17 0 0 1-1.56.16c-.5 0-1-.16-1.51-.19-1.77-.08-3.54.08-5.29.11" transform="translate(133.73 -10.38)"/>
                        </g>
                    </g>
                </g>
                <g style="opacity:.78">
                    <g style="clip-path:url(#clip-path-20)">
                        <path class="cls-9" d="M57.24 248.55c-.89.38-3 .63-2.78-.89-.33.38-1.57 1.38-2.63.31-.28-.28-.13-.77-.14-.87a2 2 0 1 1-.76-3.8c-2.42-.5-5.26-4.21-2.32-4.39-.64-1.37-.52-2.77 1.43-2.71 0-.46-.94-.85-.38-1.65.18-.26 1.05-.28 1.1-.41.15-.48-.31-1-.49-1.82-.3-1.36.52-4.35 2.83-1.9.41-2.06 4.42-.69 4.38 1.08 1.06-.68 2.45-.54 2.2 1 2.2-.39 1.4 1.34 1.21 1.72.62-.14 3-.24 2.4 1.73 1.93-.59 1.56 1.76 1.56 1.76s1.73-.06 1 1.39c1 .17 1.21 1.18.74 2 .72.79 1 2.33-.53 2.15.77 1.26.31 2.82-1.41 2.35 2 2.93-1.56 4.14-1.41 2-.66.63-2.3 1-2.59 0-.4 1.07-2.46.92-3.42.94" transform="translate(133.73 -10.38)"/>
                        <g class="cls-16">
                            <path class="cls-9" d="M57 248c-.34.24-.87-.09-1.17-.28a1.43 1.43 0 0 1-.47-.37c-.07-.12.05-.28 0-.4-.24-.38-.93-.3-1.3-.4a6 6 0 0 1-1.15-.65c-.52-.27-1-.31-1-1a7.23 7.23 0 0 1 .12-1c.09-.59.27-.83 0-1.42s-1.13-1.24-1.27-2 .74-.9.6-1.62c-.06-.3-.2-.46-.08-.76s.43-.63.58-1c.49-1.06-.12-2.8 1.2-3.33a2.15 2.15 0 0 1 1.28-.12c.65.17.43.72.83 1.14.65.7 1.49-.32 2.28 0 .4.14.39.4.61.73.38.56.67.29 1.22.38s.37.46.58 1 1 .5 1.56.72.76.89 1.26 1.32 1.16.44 1.27 1.25c.13 1-.68 1.66.05 2.61a1.64 1.64 0 0 1 .17 2.15c-.27.54-.21 1.28-.88 1.46-.33.09-.72-.15-1 .08-.09.07-.12.35-.22.45-.37.4-1.11.18-1.57.17a1.31 1.31 0 0 0-.71.17c-.3.11-.92.14-1 .54a1 1 0 0 0-.85.2" transform="translate(133.73 -10.38)"/>
                        </g>
                        <path class="cls-9" d="M56.68 256.61a37.91 37.91 0 0 0-1-14.8c1.45 1.16 1.72 3 2 4.62.82-.8 1.36-1.8 2.3-2.62-.12 1.76-1.67 3.12-2 6.34-.21 2.21.33 4.52-.27 6.55-.31.07-.76.27-1-.09M8.14 187.54a11.79 11.79 0 0 1-.08 1.78 1.94 1.94 0 0 0 .71 1.77c1.59 1 2.45-2.18 4-2 .05 1-.52 3.64 1.14 3.49 1.2-.12 1.36-3.64 2.61-1 .76 1.59-.84 4.3 1.86 3.06 2.12-1 3.19-4.78 5.33-2.71 1.72 1.65.06 3.59 2.66 2.17.75-.4.6-1.11 1.41-1.31a6.41 6.41 0 0 1 2.3.18 2.25 2.25 0 0 1 1.43.7 2.14 2.14 0 0 1 .35 1.6 3.77 3.77 0 0 1-1.22 2.33c.63-.57 2-.84 2.49 0s0 2.13-.39 2.85c2.33-.26 1.57 1.61 1.31 3.05 4.2.35.61 3.07.63 4.91 0 .72 1.85 6.77-1.53 3.41-1.37 1.17.26 4.11-1.5 4.88-.72.31-1.92-.73-2.77-.45s-1 1.68-1.84 1.81c-1.74.26-1-2.07-3.19-1.35-1.9.63-.77 2.58-2.62 3.23-2.66.93-1.81-2.23-3.55-1.78s-1.6 6-4.21 3.13c-.48-.54.39-1.69-.58-2.18-1.49-.76-1.58 1.26-2.5 1.46-1.64.37-1.4-.89-4.56 1.06-1.49.91-1-3.26-2.44-2.77-1.8.61-1.45 2.95-2.44 3.77-1.81 1.5-1.94-.09-2.82-1.15-1.1-1.31.35-1.48-1.73-.88-1.19.35-2.11 2.28-3.55.87s1-2.43-1.92-1.75-5.54 2.25-5.12-2.14c-1.88-.37-3.79 2.25-4.85-.15-.38-.84.64-2.15.31-2.69-.68-1.15-1.51-.24-2.36-.47-1.51-.42-.16-2.22-1.81-2.41-2.87-.33-2.52-1.12-.18-2.93-.77-1.45-2.85-1-3.53-2.09-1.05-1.66 1.19-1.48 1.53-3.13.25-1.2-.68-1.94-.59-3.17.19-2.4 1.51-2.18 3.44-2 1.52.16 2.15 1.15 3.23-.91.76-1.44-.5-2.11 1.26-3.31 1.36-.93 1.56-.17 2.63.48a1.6 1.6 0 0 0 2.11-2.19c.75.14 1.33-.65 1.64-1.35s.71-1.54 1.47-1.63a1.62 1.62 0 0 1 1.41.79c.34.45.57 1 .95 1.4a1.38 1.38 0 0 0 1.52.47c.45-.21.66-.74 1.06-1a2 2 0 0 1 2 .07 5.42 5.42 0 0 0 1.89.73c.53-1.7.63-3.36 2.72-2.11.71.43.1 1.67 1.4 1.56 1.45-.12.57-.88 1-1.58.24-.44 0-1.09.36-1.51.56-.72 1.47-.2 1.79.47a3.23 3.23 0 0 1 .26 1.31 15.79 15.79 0 0 1 1.07-2.93c.09-.18.25-.39.43-.31a.35.35 0 0 1 .19.3 1.45 1.45 0 0 1 0 .28" transform="translate(133.73 -10.38)"/>
                        <g class="cls-43">
                            <path class="cls-9" d="M12.47 218.89c1.14 0 3.26.44 4.07-.53.27-.31-.07-1.1.15-1.49s1-.74 1.37-1.07a4.25 4.25 0 0 1 3.11-1.34c.95-.06 2.8.23 3.61-.2s.45-.94.84-1.36c.62-.68.56-.43 1.42-.94 1.55-.94 2.77-1.74 2.22-3.74-.15-.57-.63-.95-.71-1.56s.48-1.32.34-2c-.56-2.92-2.74-1.25-4.28-2.5-1.85-1.5.16-3.12-3.31-3.25a5.57 5.57 0 0 0-2.42.19c-1.2.57-1.15 1.76-2.67.94-1-.54-1.18-2.4-2.39-2.75s-2.18 1.1-3.5.48c-.75-.36-.74-1.19-1.66-1.49-1.24-.39-2.15.36-3.25-.65S3.9 193 2.2 195c-.42.49-.33 1.52-.84 1.89-.92.68-.76-.11-1.69-.33-1.16-.27-.67-.55-1.81.37s-.61 1-2 .91c-1.17-.09-2-.93-3.13.2s-.06 2.4-.87 3.3c-.44.5-1.33.16-1.76.51s-.34.88-.63 1.13c-.65.55-.62.76-1.44 1-.61.17-1.57-.3-2.12 0-1.34.71-.63 2.54-1.2 3.74-.72 1.52-2.25 2-1.14 3.95.36.65 1.2.81 1.52 1.26.44.64.32 1.14.63 1.76.73 1.51 1.93 2 3.53 2.91a14.49 14.49 0 0 0 6.24 1.83c.58 1.76 3.11-.19 4.14-.67a4.75 4.75 0 0 1 1.51-.67c.84-.06 1.27.68 1.75.69 1.59.05 2.75-1.16 4.39-.57.36.13.55.85 1.07 1s1.46-.1 4.08-.33" transform="translate(133.73 -10.38)"/>
                        </g>
                        <g class="cls-43">
                            <path class="cls-9" d="M13.46 218.56c.84-.81 2.17-1.32 2.95-2.29s.67-2.6 2.11-2.83c.15-1.3-3-1.82-4.08-1.77-2 .09-2.92 2-4.84 2s-4.06.91-6.15.58-3.84-3.79-6.24-2.51c-1 .52-1.16 1.5-2.22 2-1.38.68-2.33.18-3.83.36.28 1.95-3.78 2.44-.93 4.24.91.57 2.25.21 3.2.35s1.66.62 2.63.8c2.14.41 3.56-1.41 5.54-1.48 1 0 1.55.69 2.66.74.83 0 1.6-.43 2.54-.25 2.18.42 3.56 1.93 6.66 0" transform="translate(133.73 -10.38)"/>
                        </g>
                        <path class="cls-9" d="M16.25 214.7c-.09.81-1.08 1.32-1.64 2.06A80 80 0 0 0 6.4 230c-2.4 5.21-1.48 12.7-1.48 18.39a70.55 70.55 0 0 0 .63 8.71c-1.2.06-3.21.19-4.41.13-1.77-9.13 1.32-19-.81-28.12A27.09 27.09 0 0 0-4.31 219c-.34-.43-2.24-1.79-2.15-2.51.29-2.19 2.76-.13 3.46.5 3.42 3.08 4.76 7.42 7.1 11.2 3.37-1.86 6.74-9.71 9.29-12.94 1.14-1.44 3-2.14 2.86-.59m27.22 24.52c-2-.44-2.67 3.33-5 1.69-.72-.51-.53-1.63-1.23-2.1s-2 0-2.77-.22c-.49-.14-1.48-.51-1.75-1.06-.16-.35.24-.83.15-1s-.48-.7-.6-1c-.46-1.1-.93-.66.17-1.92.63-.72 1.39-.71 1.08-1.76a5.09 5.09 0 0 0-2-1.55c-1.05-.27-2.77 1-3.64.51s-.25-1.68-.91-2.33c-1-1-3.32-.14-3.18-2.18.08-1.13 1.6-1.8 2.12-2.71s.05-1.94.47-2.76c.84-1.62 2.53-.93 1.38-3.09-.85-1.57-2.6-2.93-2.19-5s3.35-1.75 4-3.62c.38-1.14-1.07-.93.45-1.65.82-.39 2.1.26 3 .16 2.61-.31 1.56-1.72 2.35-3.47.27-.63 1.65-2.09 2.45-2 .55.05 1.12 1.19 1.84 1.33.94-1.86 0-2.81 2.33-2.92.73 0 1.25.29 1.86 0s.56-1.42 1.57-1.5 2.87 1.52 3.69 2c1.23.68 1.51.86 1.48 2.34 2.1-.33 2.67-2.07 2.94.83.22 2.42.41 2.59 2.95 1.5.47 2.34 3.94-.3 5 1.47.5.87-.48 2-.48 2.79 0 1.1.58.9.73 1.66.2 1.07-.58 2-.26 3.11.12.41 1 1.6 1.18 2 .73 1.41.87 1.11 2.12 2 .68.47 1.49.58 1.32 1.69-.31 2.07-3.31 2.28-2.31 4.76.15.38.88.44 1 .82s-.17 1-.16 1.45c0 1 .6 2.13.63 3 0 1.07-.21.63-1.12 1.52a6.6 6.6 0 0 0-1.85 3.71c-.58 2-1.76 3.9-4.11 2.38-1.36 2.24-3.35 2-4.87 3.63-1.12 1.23-2.45 2.82-4.39 1.66-.66-.4-.66-1.22-1.17-1.64s-1-.42-1.34-.65c-.82-.62-2.71-3.06-2.94-1.82" transform="translate(133.73 -10.38)"/>
                        <g class="cls-16">
                            <path class="cls-9" d="M43.31 238.68a3.51 3.51 0 0 0 0-1c-.75 0-2.22 0-2.8-.51s-.23-1.4-.63-2.16-1.8-1.21-2.53-1.78a4.34 4.34 0 0 1-1.45-2c-.55-1.11-2.38-2.92-2.31-4.13 0-.9 1.07-1 1.15-1.81s-.75-1.39-1-2.13c3.84-.58-.13-4.52.18-6.12 1.72-.09 2.17.14 3.21-1.27s.63-2 .58-3.69c.86 0 2.54.17 3.15-.67s-.22-1.65 0-2.32a2.35 2.35 0 0 1 1.74-1.65c1-.08 1.15.9 2 1 1.46.12 2.56-3.07 4-1.11.76 1-.51 1.21 1 1.79a14 14 0 0 0 3.56.34c-.38 1.35-.56 1.75.53 2.39.53.3 1.15-.15 1.57.32s0 1.49.06 1.94c.25 2.79 1.4 3.88 3.35 5.39-.6 1.66-2.65 1.63-2.43 3.65.11 1 1.7 2.26 1.58 3.23-.08.72-1.12.88-1.37 1.56-.4 1.06.36 1.65.49 2.63.23 1.68-.34 1.79-1.8 2.51-1.14.57-2.77.8-3 2.32-.19 1.24 1 2.08-.32 3-1.76 1.16-4.2-.54-5.9-.15 0 .34-.22.62-.22.94a3 3 0 0 1-2.45-.47" transform="translate(133.73 -10.38)"/>
                        </g>
                        <g class="cls-16">
                            <path class="cls-9" d="M54.14 230.14c-.16-1.08-.35-1.56-1.54-1.53-.4 0-.86.37-1.21.33s-.23-.26-.51-.44c-.78-.48-2 .69-2.69.25-.41-.24-.46-1-.52-1.41a22.81 22.81 0 0 0-.26-2.46 5.19 5.19 0 0 1-.13-2.11c.06-.5.23-1.12-.14-1.53s-.71-.27-1-.55-.19-.58-.38-.72c-.37-.27-1.27.1-1.74.1a5.65 5.65 0 0 0-1.3 0 1.35 1.35 0 0 0-.88 1.54c.16 1 .43 1.26-.45 2-.48.43-1.31.58-1.49 1.25-.1.37.09.72-.1 1.08s-.58.42-1 .43c-.9 0-1 .24-1.69.66-.47.27-1.11.14-1.53.45s-.07.67 0 1.2c.1.71-.34.68-.73 1a12.07 12.07 0 0 1 1 1.53 4.34 4.34 0 0 0 1.45 2c.74.57 2 .89 2.53 1.78s-.07 1.47.64 2.16 2 .54 2.79.51a5 5 0 0 1 0 .69 5 5 0 0 1 2.41 0l.18.11a.87.87 0 0 0 .06-.32c1.7-.39 4.14 1.31 5.9.15 1.37-.9.13-1.74.32-3a2.11 2.11 0 0 1 1.36-1.62 2.8 2.8 0 0 1 .19-.89 4.69 4.69 0 0 0 .39-2.73" transform="translate(133.73 -10.38)"/>
                        </g>
                        <path class="cls-9" d="M42.65 258.32c.22-3.59.84-7.65.5-11.19-.19-1.94.09-4.82 0-6.8-.08-1.7.14-3.81-.7-5.29-1-1.84-3.07-3.09-4.28-4.79 1.7-1.73 4.37 4.77 6.28 4.25.11-2.56.11-5 .36-7.56.15-1.56-.26-4.31.33-5.74 1.73 1.08.83 11.74 1 13.83 1.85-1 3.38-4.67 5.9-4.6 0 1.35-2.54 2.74-3.77 4.37s-2 5.13-2.29 7a64.43 64.43 0 0 0-.19 10.49 24.65 24.65 0 0 0 1.25 6 7.23 7.23 0 0 1-4.39 0m-35.32-3.14A1 1 0 0 0 8 253.9c-.66-.16-1.57-.08-1.66-.85.6-.35 1.25-.23 1.7-.6a1.42 1.42 0 0 1-.42-1.11c1.79 0 1.2-.53 1.53-1.72.38-1.37.94-1.38 1.69-.2.91 1.41.54 1.2 2.28 1.19 1.57 0 3.08.38 2.58-1.82 1.3-.23 2.3 1.81 3.3.21.37-.61-.12-1.48.23-2.1.15-.27.56 0 .72-.23s.59-1.1.68-1.15c2.41-1.66 1.28 2.63 2.15 2.93s.9-1.38 1.27-1.61c.82-.49 1.15.72 2 .51s.66-1.65 1.84-1.39c1.44.32.69 2.57 1.74 3.09.82.4 1.53-.93 2.35-.43s.18.93.32 1.4-.06.59.15 1c.06.13.77.26 1 .52s-.19 1 0 1.26c.72.95 2.54.11 2.27 1.61-.5 2.85-7.77 1.65-9.62 1.46a60.26 60.26 0 0 0-11.86-.07 15.6 15.6 0 0 1-6.87-.71" transform="translate(133.73 -10.38)"/>
                        <g class="cls-16">
                            <path class="cls-9" d="M9.71 256c-.07 0-.1.08-.19.08 1.05-.51-.43-2.25-.48-3a.81.81 0 0 1 .26-.66c.38-.24.25 0 .58.09s.2.31.6.3a4.07 4.07 0 0 0 .85-.4c-.07-.08-.13-.29-.21-.36.61-.66.9.35 1.34.5.19.07.48-.11.64-.06a1.8 1.8 0 0 1 .35.22s.1.17.22.18.53-.34.72-.38c.92-.16 1.36.92 2.42.7s1.09-.6.7-1.36c.39 0 .87-.12 1.13.15.44.45.23 1.35.79 1.84s1.14.14 1.9 0 2.13.19 2.5-.58a5.53 5.53 0 0 1-1.74-1.86c-.09-.18 0-.42-.12-.59s-.3-.11-.37-.21-.45-.14-.42-.43c0-.45.87-.39 1.11-.32s.25.4.61.41.65-.5 1-.57c.16 0 .23.22.39.19.38-.08.62-.36 1-.48 1-.35.82.58 1.58.83.52.17.78-.52 1.31-.39s.46.83.47 1.34c.27.11.62 0 .88.14.44.19.25.23.47.46s.59.69.5 1.12c.81.19.67.41 1.19.91.25.24.56.17.81.34s.37.49.63.82c.55.71 1.52 1.13.17 1.69-2.21.94-5.41 0-7.69-.24-1.63-.16-3.39-.77-5-.56-.6.07-1.16.39-1.75.52a13.52 13.52 0 0 1-2.46.18c-1.19.06-2.29.36-3.49.36a4.22 4.22 0 0 1-1.18 0c-.5-.15-.75-.74-2-.89" transform="translate(133.73 -10.38)"/>
                        </g>
                        <path class="cls-9" d="M15.87 226.35c-.4.73 0 1.55.9 1.3 0-.32.06-1 .56-.71s0 .76.12 1.13c.27.66-.18.31.4.79s.61-.46 1 .19-.76 1.82.66 2.18c.88.23 1.17-1 1.73-1.69.25-.31.75-.23 1.15-.18a1 1 0 0 1 1.18-1c.66.09-.07 1.37.9.34.55-.59.15-1.08.87-1.56a3.61 3.61 0 0 1 2.05-.34c.42.19.46.86.57 1.32s-.53.32-.34.78 1.77.6.6 1.44c.42.89 1.2 1.45.82 2.62a1.17 1.17 0 0 1 .74 1.87c-.35.4-1.4.07-1.72.76-.17.39.31.63.25 1 0 0 .3.35.17.65s-.64.65-.67.71A2.13 2.13 0 0 0 28 239c.07.23-.18.4-.07.68s.87.06.86.39c0 .66-.88.65-1.27.93-1.59 1.18.19 2.73-.47 4.37-.38-.2-.79-.43-1.16-.66-.26.62-.32 2.22-1.07 2.6-.5.25-1-.52-1.57-.2-.79.42-.38 1.54-1.32 1.92s-2.34-.21-1.86-1.27a5.29 5.29 0 0 0-1.86-.05c-.44.12-.57.52-.92.64-1.24.42-1.22-.17-2.09-.54-1.72-.72-1.12-.2-1.44-1.78-.25-1.22-.18-.79-1.19-.43-.6.21-2 .83-2.7.54a10.73 10.73 0 0 1-2.3-2.51s-.2-1.2-.2-1.19c-.15-1.36-.5-.57.46-1.32.59-.47 1 .24 1.31-.85a1.47 1.47 0 0 0-1-1.66c.31-1.6 1-1.13-.47-2.17-.21-.14-.84-.22-.93-.47-.2-.57.48-.6.49-.89.06-1.46-.73-4.12 1.88-4 1.06.06 1.85 2 2.59.17a5.4 5.4 0 0 0 0-2.08c-.11-.67-.77-2.32.78-2.16.73.07 1.95 2.11 1.88.49-.05-1 1.21-2.74 1.57-1.16" transform="translate(133.73 -10.38)"/>
                        <g class="cls-49">
                            <path class="cls-9" d="M22.44 247.32a3.53 3.53 0 0 1 1.72-1.32c.31-.11.63-.13.85-.39s.16-.64.2-1a2.63 2.63 0 0 1 .15-.79 5.67 5.67 0 0 0 .52-1.08 3.2 3.2 0 0 0-.4-1.86 2.5 2.5 0 0 1 0-2 5.38 5.38 0 0 0 0-1.79c0-.44.21-.62.33-1a1.3 1.3 0 0 0-.44-1.17 2 2 0 0 0-2.21-.61 6.29 6.29 0 0 0-1.27 1 3.66 3.66 0 0 1-2.14.4h-2c-.83 0-1.22 0-1.62.82-.67 1.35-2.58.74-3.6 1.79a4.47 4.47 0 0 0-1 3.33 5.58 5.58 0 0 0 .53 1.6c.28.61.92.73 1.52.89a5.88 5.88 0 0 1 1.88.68c.53.36.46.78.67 1.28s1 .47 1.48.54a1.88 1.88 0 0 1 1.25.45 1.84 1.84 0 0 0 1.25.45 5.75 5.75 0 0 1 .94.14c.32.09.72.28 1 .11s.25-.36.4-.49.37-.14 0 .1" transform="translate(133.73 -10.38)"/>
                        </g>
                        <path class="cls-9" d="M21.93 249.34c-.08 1.64.77 6-1.24 6.25-.69-1.62 0-6.53-.46-8.24-.54-2.13-3.69-4.8-4.74-5.69 2.23-.27 5.15 3.34 5.63 5.1.3-1.84.64-4.39 2.93-6-1.35 1.87-2 6.59-2.12 8.57" transform="translate(133.73 -10.38)"/>
                    </g>
                </g>
                <g style="opacity:.73">
                    <g style="clip-path:url(#clip-path-28)">
                        <g style="opacity:.5">
                            <g style="clip-path:url(#clip-path-29)">
                                <path class="cls-9" d="M326.48 193.07a16.91 16.91 0 0 1-.1 2 2.18 2.18 0 0 0 .8 2c1.8 1.1 2.77-2.46 4.52-2.24.06 1.16-.58 4.12 1.29 3.94 1.36-.13 1.54-4.11 3-1.13.86 1.8-.95 4.87 2.1 3.46 2.4-1.09 3.61-5.4 6-3.07 1.95 1.88.07 4.06 3 2.46.84-.46.68-1.25 1.59-1.48a7.36 7.36 0 0 1 2.6.2 2.52 2.52 0 0 1 1.62.8 2.39 2.39 0 0 1 .4 1.81 4.35 4.35 0 0 1-1.38 2.63c.72-.64 2.24-1 2.81 0s0 2.41-.44 3.22c2.64-.3 1.78 1.82 1.48 3.45 4.76.4.7 3.47.72 5.55 0 .81 2.09 7.66-1.73 3.86-1.56 1.33.3 4.65-1.7 5.52-.81.35-2.17-.83-3.13-.51s-1.14 1.9-2.08 2c-2 .3-1.15-2.33-3.61-1.52-2.15.71-.87 2.92-3 3.65-3 1.06-2.06-2.52-4-2s-1.81 6.79-4.76 3.54c-.55-.61.44-1.91-.66-2.47-1.69-.85-1.78 1.43-2.82 1.66-1.86.42-1.59-1-5.17 1.19-1.68 1-1.14-3.68-2.75-3.13-2 .69-1.64 3.34-2.76 4.27-2 1.69-2.2-.1-3.19-1.3-1.25-1.49.4-1.68-2-1-1.33.38-2.37 2.57-4 1s1.11-2.75-2.17-2-6.27 2.55-5.79-2.41c-2.13-.43-4.29 2.54-5.5-.17-.42-.95.73-2.43.36-3-.78-1.3-1.71-.27-2.67-.53-1.71-.47-.18-2.51-2.05-2.73-3.25-.37-2.86-1.26-.21-3.31-.86-1.64-3.21-1.14-4-2.36-1.19-1.89 1.36-1.67 1.74-3.55.28-1.35-.78-2.18-.67-3.58.22-2.71 1.7-2.46 3.89-2.24 1.72.17 2.43 1.29 3.65-1 .86-1.63-.57-2.39 1.42-3.74 1.54-1.05 1.77-.19 3 .54a1.81 1.81 0 0 0 2.43-2.46c.85.16 1.51-.73 1.86-1.52s.8-1.74 1.66-1.85a1.88 1.88 0 0 1 1.6.89c.38.52.64 1.12 1.07 1.6a1.57 1.57 0 0 0 1.72.52c.5-.24.74-.84 1.2-1.16a2.27 2.27 0 0 1 2.21.08 6.29 6.29 0 0 0 2.14.82c.59-1.92.71-3.8 3.07-2.38.81.48.11 1.89 1.59 1.76 1.64-.14.64-1 1.07-1.78.27-.51 0-1.24.4-1.72.64-.81 1.67-.23 2 .53a4 4 0 0 1 .3 1.49 16.29 16.29 0 0 1 1.21-3.32c.09-.2.28-.43.48-.35s.19.21.22.34 0 .22.05.32" transform="translate(133.73 -10.38)"/>
                                <g class="cls-43">
                                    <path class="cls-9" d="M331.37 228.53c1.28 0 3.69.5 4.6-.6.3-.35-.08-1.24.17-1.68s1.1-.84 1.55-1.21a4.84 4.84 0 0 1 3.52-1.53c1.08-.06 3.17.27 4.08-.22s.51-1.06.95-1.54c.7-.76.63-.48 1.6-1.06 1.77-1.06 3.14-2 2.52-4.23-.17-.65-.72-1.07-.8-1.76s.54-1.5.39-2.32c-.64-3.3-3.11-1.41-4.85-2.83-2.1-1.7.18-3.53-3.75-3.67a6.07 6.07 0 0 0-2.73.21c-1.36.64-1.3 2-3 1.07-1.15-.61-1.34-2.72-2.7-3.11s-2.47 1.24-4 .53c-.85-.4-.84-1.35-1.88-1.68-1.4-.44-2.43.41-3.68-.73s-1.7-2.9-3.63-.66c-.47.55-.37 1.71-.95 2.14-1 .76-.86-.13-1.91-.38-1.31-.31-.76-.62-2 .42s-.69 1.14-2.23 1c-1.31-.1-2.25-1.05-3.54.22-1.14 1.13-.06 2.72-1 3.74-.5.56-1.5.18-2 .57s-.39 1-.72 1.28c-.73.63-.7.86-1.62 1.11-.69.19-1.77-.34-2.4 0-1.52.8-.71 2.88-1.36 4.24-.81 1.71-2.55 2.23-1.29 4.46.42.73 1.36.91 1.72 1.43.5.72.37 1.29.71 2 .83 1.71 2.19 2.3 4 3.29a16.36 16.36 0 0 0 7.06 2.06c.66 2 3.51-.21 4.68-.75a5.41 5.41 0 0 1 1.7-.76c1-.06 1.44.77 2 .78 1.79.06 3.11-1.31 5-.64.41.15.62 1 1.21 1.18s1.65-.12 4.62-.38" transform="translate(133.73 -10.38)"/>
                                </g>
                                <g class="cls-43">
                                    <path class="cls-9" d="M332.48 228.16c.95-.92 2.46-1.5 3.35-2.59s.76-2.94 2.38-3.2c.17-1.47-3.45-2.07-4.61-2-2.27.11-3.31 2.24-5.48 2.31s-4.59 1-7 .66-4.34-4.29-7.05-2.84c-1.1.59-1.32 1.69-2.51 2.28-1.57.76-2.64.2-4.34.4.32 2.2-4.27 2.76-1.05 4.79 1 .65 2.55.24 3.62.4s1.88.7 3 .91c2.42.46 4-1.59 6.27-1.68 1.15 0 1.75.78 3 .84.94 0 1.81-.48 2.88-.28 2.46.47 4 2.17 7.52 0" transform="translate(133.73 -10.38)"/>
                                </g>
                                <path class="cls-9" d="M335.64 223.79c-.1.92-1.22 1.49-1.85 2.33a91 91 0 0 0-9.29 15c-2.72 5.9-1.67 14.37-1.67 20.81 0 3.42.6 15.25 1 18.5-1.36.07-3.63.22-5 .15-2-10.32 1.2-30.12-1.2-40.46a30.72 30.72 0 0 0-5.26-11.39c-.38-.49-2.53-2-2.42-2.83.33-2.49 3.12-.15 3.9.55 3.88 3.49 5.39 8.4 8 12.67 3.81-2.1 7.63-11 10.51-14.63 1.29-1.63 3.41-2.42 3.23-.67" transform="translate(133.73 -10.38)"/>
                            </g>
                        </g>
                        <path class="cls-9" d="M356.09 237c.17-1.26-.74-1.37-1.51-1.9-1.43-1-1.58-.63-2.43-2.22-.25-.49-1.21-1.82-1.35-2.29-.38-1.3.49-2.31.25-3.52-.17-.85-.85-.62-.85-1.87 0-.95 1.09-2.18.51-3.16-1.17-2-5.06 1-5.62-1.6-2.86 1.26-3.08 1.08-3.36-1.66-.33-3.28-1-1.31-3.33-.91 0-1.67-.3-1.87-1.7-2.63-.93-.5-3.2-2.28-4.19-2.18-1.15.1-1 1.3-1.76 1.71s-1.28 0-2.11.08c-2.61.15-1.56 1.22-2.6 3.33-.82-.15-1.48-1.43-2.09-1.48-.91-.08-2.45 1.58-2.76 2.29-.86 2 .33 3.58-2.61 4-1 .13-2.47-.59-3.39-.15-1.72.84-.08.58-.5 1.87-.69 2.13-4 1.77-4.45 4.14s1.56 3.83 2.53 5.6c1.33 2.44-.59 1.67-1.53 3.52-.46.92.14 2-.5 3.12s-2.29 1.81-2.36 3.09c-.14 2.31 2.48 1.34 3.62 2.43.75.73.09 2.06 1.06 2.62s2.92-.91 4.11-.62a5.75 5.75 0 0 1 2.27 1.74c.36 1.18-.5 1.17-1.2 2-1.24 1.44-.71.93-.17 2.17.14.33.59.89.69 1.11s-.35.77-.16 1.16c.31.62 1.44 1 2 1.18.83.23 2.41-.25 3.14.22s.59 1.78 1.41 2.36c2.46 1.71 3.22-2 5.19-2v1.34c.14 2.24-.14 5.5.09 7.7.43 4-.22 8.59-.43 12.65a8.18 8.18 0 0 0 5-.05 27.06 27.06 0 0 1-1.49-6.75 71.26 71.26 0 0 1 .1-11.87c0-.35.11-.76.19-1.19l.27.23c.34.25 1 .33 1.53.72s.6 1.4 1.34 1.84c2.22 1.29 3.69-.52 4.95-1.93 1.7-1.9 4-1.6 5.47-4.16 2.67 1.69 4-.42 4.61-2.74.49-1.82.64-2.79 2.06-4.22 1-1 1.3-.51 1.24-1.73 0-1-.71-2.22-.74-3.37 0-.52.37-1.1.16-1.65s-1-.49-1.16-.91c-1.16-2.8 2.23-3.07 2.56-5.41" transform="translate(133.73 -10.38)"/>
                        <g style="clip-path:url(#clip-path-32)">
                            <path class="cls-9" d="M330.73 258.5c-2.28-.47-3 3.81-5.59 2-.82-.58-.61-1.85-1.41-2.36s-2.31 0-3.14-.22c-.55-.16-1.68-.56-2-1.18-.19-.39.26-.94.16-1.16s-.55-.78-.69-1.11c-.54-1.24-1.07-.73.17-2.17.7-.83 1.56-.82 1.2-2a5.82 5.82 0 0 0-2.27-1.73c-1.19-.29-3.13 1.19-4.12.62s-.3-1.89-1.05-2.62c-1.14-1.09-3.76-.12-3.62-2.43.07-1.28 1.78-2.06 2.36-3.09s0-2.2.5-3.12c.94-1.85 2.86-1.09 1.53-3.52-1-1.77-3-3.28-2.53-5.6s3.76-2 4.45-4.14c.42-1.29-1.22-1 .5-1.87.92-.44 2.37.28 3.39.15 2.94-.38 1.75-2 2.61-4 .31-.71 1.85-2.37 2.76-2.29.61.05 1.27 1.33 2.09 1.48 1-2.11 0-3.18 2.6-3.33.83 0 1.41.31 2.11-.08s.61-1.61 1.76-1.71c1-.1 3.26 1.68 4.19 2.18 1.4.76 1.71 1 1.7 2.63 2.38-.4 3-2.37 3.33.91.28 2.73.5 2.93 3.36 1.66.56 2.63 4.45-.38 5.62 1.6.58 1-.51 2.21-.51 3.16 0 1.25.68 1 .85 1.87.24 1.21-.63 2.22-.25 3.52a25.27 25.27 0 0 0 1.35 2.29c.85 1.59 1 1.26 2.43 2.22.77.53 1.68.64 1.51 1.9-.33 2.34-3.72 2.61-2.56 5.41.18.42 1 .49 1.16.91s-.18 1.13-.16 1.65c0 1.15.7 2.39.74 3.37.06 1.21-.22.71-1.24 1.73-1.42 1.43-1.57 2.4-2.06 4.22-.62 2.32-1.94 4.43-4.61 2.74-1.52 2.56-3.77 2.26-5.47 4.16-1.26 1.41-2.73 3.22-4.95 1.93-.74-.44-.76-1.37-1.34-1.84s-1.19-.47-1.53-.72c-.92-.69-3.09-3.43-3.34-2" transform="translate(133.73 -10.38)"/>
                            <g class="cls-16">
                                <path class="cls-9" d="M330.54 257.94a3.63 3.63 0 0 0 0-1.09c-.85 0-2.51.08-3.17-.55s-.27-1.58-.74-2.43c-.55-1-2-1.35-2.89-2a5 5 0 0 1-1.65-2.26c-.64-1.26-2.73-3.29-2.67-4.65.05-1 1.21-1.17 1.29-2.07s-.87-1.56-1.14-2.39c4.33-.7-.2-5.11.13-6.92 1.95-.13 2.46.13 3.62-1.47s.68-2.31.62-4.19c1 0 2.87.16 3.55-.79s-.27-1.87-.07-2.62a2.67 2.67 0 0 1 2-1.89c1.11-.1 1.31 1 2.27 1.08 1.65.12 2.85-3.51 4.56-1.31.88 1.12-.55 1.37 1.21 2a15.72 15.72 0 0 0 4 .35c-.42 1.52-.62 2 .62 2.69.61.34 1.3-.19 1.78.35.36.39 0 1.68.09 2.19.32 3.15 1.63 4.37 3.85 6.06-.66 1.88-3 1.87-2.71 4.16.14 1.16 2 2.53 1.84 3.63-.09.81-1.26 1-1.54 1.77-.44 1.21.42 1.87.59 3 .27 1.9-.37 2-2 2.86-1.29.66-3.13.94-3.36 2.66-.19 1.4 1.22 2.33-.33 3.37-2 1.33-4.76-.56-6.67-.1 0 .38-.24.7-.24 1.07a3.46 3.46 0 0 1-2.78-.51" transform="translate(133.73 -10.38)"/>
                            </g>
                            <g class="cls-16">
                                <path class="cls-9" d="M342.69 248.16c-.19-1.22-.41-1.76-1.75-1.72-.46 0-1 .43-1.37.39s-.26-.29-.58-.49c-.88-.54-2.22.81-3 .32-.46-.27-.53-1.1-.6-1.59a26.33 26.33 0 0 0-.33-2.78 5.85 5.85 0 0 1-.17-2.39c.06-.56.24-1.27-.18-1.73s-.8-.3-1.11-.61-.22-.65-.44-.81c-.42-.3-1.44.13-2 .14a6.65 6.65 0 0 0-1.48 0 1.53 1.53 0 0 0-1 1.76c.19 1.13.49 1.41-.49 2.31-.53.48-1.48.67-1.67 1.42-.11.42.11.82-.11 1.23s-.64.48-1.15.49c-1 0-1.11.29-1.91.77-.52.32-1.25.18-1.72.53-.62.47-.07.76 0 1.36.12.8-.38.77-.82 1.13a13.24 13.24 0 0 1 1.19 1.72 5 5 0 0 0 1.65 2.26c.85.64 2.34 1 2.89 2 .47.85-.07 1.66.74 2.43s2.32.59 3.17.55a6 6 0 0 1 .07.78 5.4 5.4 0 0 1 2.72 0 1.43 1.43 0 0 1 .21.12 1.15 1.15 0 0 0 .06-.37c1.91-.46 4.7 1.43 6.67.1 1.55-1 .14-2 .33-3.37a2.41 2.41 0 0 1 1.53-1.85 3 3 0 0 1 .19-1 5.23 5.23 0 0 0 .41-3.09" transform="translate(133.73 -10.38)"/>
                            </g>
                            <path class="cls-9" d="M330 280.16c.21-4.06.86-8.65.43-12.65-.23-2.2.05-5.46-.09-7.7-.11-1.92.12-4.31-.85-6-1.2-2.07-3.51-3.46-4.89-5.37 1.89-2 5 5.34 7.14 4.73.1-2.9.07-5.63.32-8.55.15-1.77-.33-4.88.31-6.5 2 1.2 1.07 13.27 1.31 15.63 2.08-1.11 3.77-5.32 6.62-5.27-.05 1.53-2.85 3.13-4.22 5s-2.22 5.83-2.5 8a71.26 71.26 0 0 0-.1 11.87 27.06 27.06 0 0 0 1.49 6.75 8.18 8.18 0 0 1-5 .05" transform="translate(133.73 -10.38)"/>
                        </g>
                        <path class="cls-9" d="M318.93 269.85c-1.2.52-4 .86-3.74-1.19-.45.51-2.13 1.86-3.56.41-.38-.38-.17-1-.19-1.17-4.09.89-4.6-4.86-1-5.13-3.26-.67-7.09-5.68-3.13-5.93-.86-1.84-.7-3.73 1.92-3.64 0-.62-1.26-1.15-.5-2.24.24-.34 1.42-.37 1.47-.55.22-.65-.41-1.37-.65-2.46-.41-1.83.69-5.86 3.82-2.56.54-2.78 6-.92 5.9 1.46 1.44-.91 3.31-.73 3 1.38 3-.53 1.88 1.8 1.62 2.31.84-.19 4.13-.32 3.24 2.34 2.61-.79 2.11 2.37 2.11 2.37s2.33-.07 1.36 1.89c1.37.22 1.63 1.58 1 2.66 1 1.07 1.32 3.15-.71 2.91 1 1.69.42 3.79-1.91 3.17 2.74 3.94-2.1 5.58-1.89 2.69-.9.85-3.12 1.37-3.51 0-.53 1.44-3.31 1.24-4.61 1.26" transform="translate(133.73 -10.38)"/>
                        <g class="cls-16">
                            <path class="cls-9" d="M318.57 269.05c-.46.34-1.18-.11-1.58-.36a2.29 2.29 0 0 1-.64-.51c-.09-.16.08-.38 0-.54-.33-.51-1.26-.4-1.76-.54a8 8 0 0 1-1.56-.87c-.7-.37-1.36-.42-1.36-1.34a9.59 9.59 0 0 1 .17-1.39c.12-.8.36-1.12 0-1.92s-1.52-1.66-1.71-2.68 1-1.21.81-2.19c-.08-.4-.26-.61-.11-1s.59-.85.79-1.29c.65-1.42-.16-3.77 1.61-4.49a3 3 0 0 1 1.73-.16c.88.24.59 1 1.12 1.54.88 1 2-.43 3.08-.06.54.19.53.54.83 1 .51.76.9.39 1.64.52.89.14.5.62.78 1.35.35.92 1.35.66 2.11 1s1 1.2 1.69 1.78 1.58.59 1.71 1.69c.18 1.41-.91 2.23.07 3.52.84 1.1.86 1.6.23 2.89-.36.74-.28 1.74-1.18 2-.44.12-1-.2-1.36.11-.12.09-.15.46-.29.6-.5.54-1.49.24-2.12.23a1.94 1.94 0 0 0-1 .22c-.4.16-1.24.2-1.3.73a1.4 1.4 0 0 0-1.14.28" transform="translate(133.73 -10.38)"/>
                        </g>
                        <path class="cls-9" d="M318.18 280.73a51.31 51.31 0 0 0-1.39-20c2 1.57 2.31 4 2.7 6.23 1.11-1.08 1.83-2.42 3.1-3.53-.17 2.37-2.26 4.21-2.67 8.56-.29 3 .45 6.09-.36 8.83-.43.09-1 .36-1.38-.12" transform="translate(133.73 -10.38)"/>
                        <g style="opacity:.8">
                            <g style="clip-path:url(#clip-path-36)">
                                <path class="cls-9" d="M383.05 270.71c-1.19.51-4 .85-3.74-1.19-.44.5-2.12 1.86-3.56.41-.37-.39-.17-1-.19-1.17-4.08.89-4.6-4.86-1-5.14-3.26-.66-7.09-5.68-3.12-5.92-.87-1.85-.71-3.74 1.92-3.65 0-.62-1.27-1.15-.51-2.23.24-.34 1.42-.37 1.48-.55.21-.65-.41-1.38-.65-2.46-.41-1.83.69-5.87 3.82-2.57.54-2.77 6-.92 5.9 1.47 1.44-.92 3.31-.74 3 1.38 3-.53 1.89 1.8 1.63 2.31.84-.19 4.12-.32 3.23 2.34 2.61-.8 2.11 2.36 2.11 2.36s2.33-.07 1.37 1.89c1.36.23 1.63 1.59 1 2.67 1 1.06 1.32 3.14-.72 2.9 1 1.69.42 3.8-1.9 3.17 2.73 3.95-2.11 5.59-1.9 2.69-.9.86-3.11 1.38-3.5 0-.54 1.43-3.31 1.24-4.62 1.26" transform="translate(133.73 -10.38)"/>
                                <g class="cls-16">
                                    <path class="cls-9" d="M382.7 269.91c-.46.33-1.18-.12-1.58-.37a2 2 0 0 1-.65-.51c-.08-.15.08-.37 0-.54-.34-.51-1.26-.4-1.76-.54a7.43 7.43 0 0 1-1.56-.86c-.7-.37-1.36-.43-1.36-1.34a9.53 9.53 0 0 1 .16-1.4c.12-.79.36-1.12 0-1.92s-1.51-1.66-1.7-2.67 1-1.21.8-2.19c-.08-.4-.26-.62-.11-1s.59-.85.79-1.29c.66-1.43-.16-3.77 1.61-4.5a3 3 0 0 1 1.74-.16c.88.24.58 1 1.11 1.54.89 1 2-.43 3.08 0 .54.19.53.54.83 1 .51.75.9.39 1.64.51.9.15.5.62.78 1.35.36.93 1.35.67 2.11 1 .91.36 1 1.2 1.7 1.78s1.57.6 1.71 1.69c.18 1.41-.91 2.23.07 3.52.83 1.1.85 1.61.23 2.9-.36.73-.29 1.73-1.18 2-.45.13-1-.2-1.36.11-.12.1-.16.47-.29.61-.51.53-1.5.23-2.12.22a1.9 1.9 0 0 0-1 .23c-.4.16-1.24.2-1.31.73a1.37 1.37 0 0 0-1.14.27" transform="translate(133.73 -10.38)"/>
                                </g>
                                <path class="cls-9" d="M382.31 281.59a51.31 51.31 0 0 0-1.4-20c2 1.57 2.32 4 2.71 6.23 1.1-1.08 1.83-2.43 3.1-3.53-.17 2.37-2.26 4.2-2.68 8.55-.29 3 .45 6.1-.36 8.83-.42.1-1 .37-1.37-.11" transform="translate(133.73 -10.38)"/>
                            </g>
                        </g>
                        <path class="cls-9" d="M361.4 201.87a15 15 0 0 1-.1 2 2.18 2.18 0 0 0 .8 2c1.8 1.1 2.77-2.46 4.53-2.24.05 1.16-.59 4.12 1.28 3.94 1.36-.13 1.54-4.11 3-1.13.86 1.8-.95 4.87 2.1 3.46 2.4-1.09 3.61-5.4 6-3.07 1.95 1.88.07 4.06 3 2.46.83-.46.67-1.25 1.58-1.48a7.36 7.36 0 0 1 2.6.2 2.49 2.49 0 0 1 1.62.8 2.39 2.39 0 0 1 .4 1.81 4.24 4.24 0 0 1-1.38 2.62c.72-.63 2.24-.94 2.81 0s0 2.41-.44 3.22c2.64-.3 1.78 1.82 1.48 3.45 4.76.4.7 3.47.72 5.55 0 .81 2.09 7.66-1.73 3.86-1.55 1.33.3 4.65-1.7 5.52-.81.35-2.17-.83-3.13-.51s-1.14 1.9-2.08 2c-2 .3-1.15-2.33-3.61-1.52-2.15.71-.87 2.92-3 3.65-3 1.06-2.06-2.52-4-2s-1.81 6.79-4.76 3.54c-.55-.61.44-1.91-.66-2.47-1.68-.85-1.78 1.43-2.82 1.66-1.86.41-1.58-1-5.17 1.19-1.68 1-1.14-3.68-2.75-3.13-2 .69-1.64 3.34-2.76 4.27-2.05 1.69-2.19-.1-3.19-1.3-1.24-1.49.4-1.68-2-1-1.34.39-2.38 2.58-4 1s1.12-2.75-2.18-2-6.26 2.55-5.78-2.41c-2.13-.43-4.29 2.54-5.5-.18-.42-.94.73-2.43.36-3-.77-1.3-1.71-.27-2.67-.53-1.71-.47-.18-2.51-2.05-2.73-3.25-.37-2.86-1.26-.21-3.31-.86-1.64-3.21-1.14-4-2.36-1.19-1.89 1.36-1.67 1.74-3.55.28-1.35-.78-2.19-.67-3.58.22-2.71 1.7-2.46 3.89-2.24 1.72.16 2.43 1.29 3.65-1 .86-1.63-.57-2.39 1.42-3.74 1.55-1.05 1.77-.2 3 .54a1.81 1.81 0 0 0 2.43-2.46c.86.16 1.51-.73 1.86-1.52s.8-1.74 1.66-1.85a1.88 1.88 0 0 1 1.6.89c.38.52.64 1.12 1.07 1.6a1.57 1.57 0 0 0 1.72.52c.51-.24.74-.84 1.2-1.16a2.27 2.27 0 0 1 2.21.08 6.29 6.29 0 0 0 2.21.77c.59-1.92.71-3.8 3.07-2.38.81.48.11 1.89 1.59 1.76 1.64-.14.64-1 1.07-1.78.27-.51 0-1.24.4-1.72.64-.81 1.67-.23 2 .53a4 4 0 0 1 .3 1.49 16.9 16.9 0 0 1 1.21-3.32c.09-.2.28-.43.49-.35s.18.21.21.34 0 .22 0 .32" transform="translate(133.73 -10.38)"/>
                        <g class="cls-43">
                            <path class="cls-9" d="M366.29 237.33c1.28 0 3.69.5 4.61-.6.29-.35-.09-1.25.16-1.68s1.1-.84 1.55-1.21a4.84 4.84 0 0 1 3.52-1.53c1.08-.06 3.17.27 4.08-.22s.51-1.06 1-1.54c.7-.76.63-.48 1.61-1.06 1.76-1.06 3.13-2 2.51-4.23-.17-.65-.72-1.07-.8-1.76s.54-1.5.39-2.32c-.64-3.31-3.1-1.41-4.85-2.83-2.1-1.7.18-3.53-3.74-3.67a6.1 6.1 0 0 0-2.74.21c-1.36.64-1.3 2-3 1.07-1.15-.61-1.33-2.72-2.7-3.11s-2.47 1.24-4 .53C363 213 363 212 362 211.7c-1.4-.44-2.43.4-3.68-.73s-1.7-2.91-3.63-.66c-.47.55-.37 1.71-.95 2.14-1 .76-.86-.13-1.91-.38-1.31-.31-.76-.62-2 .41s-.69 1.14-2.23 1c-1.31-.1-2.24-1.05-3.53.22s-.07 2.72-1 3.74c-.5.56-1.5.18-2 .57s-.39 1-.72 1.28c-.73.63-.7.86-1.62 1.11-.69.19-1.77-.34-2.4 0-1.52.8-.71 2.88-1.36 4.24-.81 1.71-2.54 2.23-1.29 4.45.42.74 1.37.92 1.73 1.44.49.71.36 1.29.7 2 .83 1.71 2.19 2.3 4 3.29a16.36 16.36 0 0 0 7.06 2.06c.66 2 3.52-.21 4.68-.75a5.36 5.36 0 0 1 1.71-.76c1-.06 1.43.77 2 .78 1.79.06 3.11-1.31 5-.64.41.15.63 1 1.21 1.18s1.65-.12 4.62-.38" transform="translate(133.73 -10.38)"/>
                        </g>
                        <g class="cls-43">
                            <path class="cls-9" d="M367.41 237c.95-.92 2.45-1.5 3.34-2.59s.76-2.94 2.38-3.2c.17-1.47-3.45-2.07-4.61-2-2.27.11-3.31 2.24-5.48 2.31s-4.59 1-7 .66-4.34-4.29-7.05-2.84c-1.1.58-1.32 1.69-2.51 2.27-1.57.77-2.64.21-4.34.41.32 2.2-4.27 2.76-1.05 4.79 1 .65 2.55.24 3.62.4s1.88.7 3 .91c2.42.46 4-1.59 6.26-1.68 1.15 0 1.75.78 3 .84.94.05 1.81-.49 2.88-.28 2.47.47 4 2.17 7.53 0" transform="translate(133.73 -10.38)"/>
                        </g>
                        <path class="cls-9" d="M370.56 232.59c-.09.92-1.22 1.49-1.85 2.33a91 91 0 0 0-9.29 15c-2.72 5.89-1.67 14.37-1.67 20.81a79.13 79.13 0 0 0 .71 9.85c-1.36.07-3.63.21-5 .14-2-10.32 1.49-21.46-.91-31.8a30.7 30.7 0 0 0-5.25-11.39c-.39-.49-2.54-2-2.43-2.83.33-2.49 3.12-.15 3.9.55 3.88 3.49 5.39 8.4 8 12.67 3.81-2.1 7.63-11 10.51-14.63 1.29-1.64 3.41-2.42 3.23-.67" transform="translate(133.73 -10.38)"/>
                        <path class="cls-9" d="M340 262.05c-2.28-.5-3 3.77-5.62 1.92-.81-.58-.59-1.85-1.39-2.38s-2.3 0-3.13-.25c-.55-.16-1.67-.57-2-1.2-.19-.39.27-.93.18-1.15s-.55-.79-.69-1.12c-.52-1.25-1.05-.75.19-2.17.72-.82 1.58-.8 1.23-2a5.91 5.91 0 0 0-2.25-1.76c-1.19-.3-3.14 1.16-4.12.58s-.29-1.9-1-2.63c-1.13-1.1-3.76-.17-3.6-2.47.09-1.28 1.81-2 2.4-3.06s.06-2.2.53-3.12c.95-1.85 2.87-1.06 1.56-3.5-.95-1.78-2.94-3.32-2.47-5.63s3.78-2 4.49-4.09c.43-1.29-1.21-1.05.52-1.87.92-.43 2.37.3 3.4.18 2.94-.34 1.76-1.94 2.64-3.92.32-.71 1.87-2.36 2.78-2.27.62.06 1.26 1.34 2.08 1.51 1.06-2.11 0-3.19 2.63-3.31.83 0 1.41.32 2.11-.06s.63-1.6 1.78-1.69c1-.09 3.24 1.72 4.17 2.22 1.39.78 1.7 1 1.67 2.65 2.38-.37 3-2.34 3.32.94.26 2.74.47 2.93 3.34 1.7.54 2.64 4.46-.34 5.61 1.66.57 1-.53 2.2-.54 3.15 0 1.25.66 1 .83 1.88.23 1.21-.66 2.22-.29 3.52a25.07 25.07 0 0 0 1.33 2.3c.83 1.6 1 1.27 2.4 2.25.77.53 1.68.65 1.49 1.91-.35 2.34-3.74 2.57-2.61 5.38.17.43 1 .51 1.15.93s-.19 1.13-.18 1.64c0 1.15.67 2.4.71 3.38.05 1.22-.24.71-1.26 1.72-1.43 1.42-1.6 2.38-2.1 4.19-.65 2.32-2 4.41-4.64 2.7-1.54 2.54-3.79 2.22-5.52 4.11-1.27 1.39-2.76 3.19-5 1.87-.74-.45-.75-1.37-1.33-1.85s-1.18-.48-1.51-.74c-.93-.7-3.06-3.45-3.32-2.06" transform="translate(133.73 -10.38)"/>
                        <g class="cls-16">
                            <path class="cls-9" d="M339.79 261.49a3.62 3.62 0 0 0 0-1.09c-.85 0-2.51.05-3.16-.58-.8-.78-.26-1.58-.72-2.44s-2-1.37-2.86-2a5 5 0 0 1-1.64-2.28c-.62-1.27-2.69-3.32-2.62-4.68.06-1 1.22-1.16 1.31-2.05s-.85-1.57-1.11-2.4c4.34-.66-.15-5.12.2-6.92 1.95-.11 2.46.15 3.64-1.44s.7-2.29.66-4.18c1 0 2.87.19 3.56-.75s-.26-1.88 0-2.63a2.67 2.67 0 0 1 2-1.87c1.12-.08 1.3 1 2.26 1.1 1.65.14 2.89-3.47 4.58-1.26.86 1.13-.57 1.37 1.18 2a16.22 16.22 0 0 0 4 .39c-.43 1.52-.64 2 .6 2.69.6.35 1.29-.17 1.77.37s0 1.69.07 2.2c.28 3.15 1.58 4.38 3.78 6.1-.67 1.87-3 1.83-2.75 4.13.13 1.16 1.93 2.54 1.8 3.64-.1.82-1.27 1-1.56 1.76-.45 1.21.41 1.88.56 3 .26 1.91-.39 2-2 2.84-1.3.65-3.14.91-3.39 2.63-.21 1.4 1.19 2.34-.37 3.37-2 1.3-4.75-.61-6.67-.17 0 .38-.25.69-.25 1.06a3.46 3.46 0 0 1-2.77-.53" transform="translate(133.73 -10.38)"/>
                        </g>
                        <g class="cls-16">
                            <path class="cls-9" d="M352 251.83c-.17-1.22-.39-1.76-1.74-1.73-.45 0-1 .42-1.37.37s-.26-.3-.57-.49c-.88-.55-2.22.78-3.05.28-.46-.27-.51-1.1-.58-1.59a26.42 26.42 0 0 0-.3-2.79 6 6 0 0 1-.15-2.39c.07-.56.26-1.26-.16-1.73-.28-.32-.8-.31-1.1-.62s-.21-.66-.43-.82c-.42-.3-1.44.12-2 .12a6.57 6.57 0 0 0-1.47 0 1.53 1.53 0 0 0-1 1.75c.19 1.13.49 1.41-.51 2.3-.53.48-1.48.66-1.68 1.41-.11.42.1.81-.12 1.22s-.65.48-1.15.49c-1 0-1.12.27-1.92.74-.53.32-1.26.17-1.73.52-.62.46-.08.76 0 1.36.12.8-.38.76-.82 1.11a14.5 14.5 0 0 1 1.16 1.74 5 5 0 0 0 1.64 2.28c.83.65 2.32 1 2.86 2s-.08 1.66.72 2.44c.65.63 2.31.61 3.16.58a6 6 0 0 1 .06.78 5.48 5.48 0 0 1 2.72 0l.21.12a.85.85 0 0 0 .06-.36c1.92-.44 4.69 1.48 6.67.17 1.56-1 .16-2 .37-3.37a2.39 2.39 0 0 1 1.54-1.83 3 3 0 0 1 .21-1 5.16 5.16 0 0 0 .44-3.09" transform="translate(133.73 -10.38)"/>
                        </g>
                        <path class="cls-9" d="M339.05 283.7c.25-4.06.95-8.64.56-12.65-.21-2.19.1-5.45 0-7.69-.1-1.92.15-4.31-.8-6-1.18-2.08-3.47-3.49-4.84-5.42 1.92-1.95 4.95 5.4 7.1 4.81.12-2.9.13-5.63.41-8.54.17-1.77-.29-4.89.37-6.5 2 1.21.94 13.28 1.15 15.64 2.09-1.09 3.82-5.28 6.67-5.2-.06 1.52-2.88 3.1-4.27 4.94s-2.27 5.8-2.58 8a72.21 72.21 0 0 0-.22 11.86 27 27 0 0 0 1.4 6.75 8.18 8.18 0 0 1-5 0" transform="translate(133.73 -10.38)"/>
                        <path class="cls-9" d="M380.13 282a2.56 2.56 0 0 1-.61-1c-.1-.61.07-.83.62-1.06a7.43 7.43 0 0 0 1.21-.38c.42-.3.14-.76 0-1.07s-.2-.14-.19-.39.22-.42.3-.61a.7.7 0 0 0-.26-1 3.6 3.6 0 0 0-2.26-.35c-.57 0-.62 0-.6-.6s-.07-.68-.52-.79c-.21-.05-.45 0-.65-.05s-.18-.24-.28-.32a2.79 2.79 0 0 0-1.06-.47c-1.19-.33.09-1.57-.49-2.05a1 1 0 0 0-1.15 0c-.26.12-.8.48-1.09.45-.5-.07-.37-.69-.39-1 0-.56-.33-.67-.8-.85-.65-.25-.75-.11-1.21.32s-.56.65-1.17.51c-.07-.35-.08-1-.42-1.2a3.63 3.63 0 0 0-1.23 0c-.46.13-.41.6-.64.92-.42.6-.74.06-1.17-.27s-.47-.29-.79.11-.53.7-.81 1.06a2.83 2.83 0 0 1-.79.86c-.38.2-1.07.24-1.23-.25s.17-.62-.58-.62a7.72 7.72 0 0 0-1.78.25c-.29.08-.94.37-1.21.08 0-.06-.13-.48-.18-.58-.17-.33 0-.31-.45-.36a1.14 1.14 0 0 0-1.25.71c-.08.14-.14.68-.23.77s-1.14 0-1.38 0a.87.87 0 0 0-1.16.65c-.3.88-.71 2.18-1.9 1.72-.31-.12-.38-.33-.74-.34a4 4 0 0 0-1.16.44 2.4 2.4 0 0 1-1.29.21c-.36-.12-.36-.33-.53-.63 0-.06-.21-.37-.24-.4-.26-.25 0-.09-.43-.2s-1.8-.16-2.11.4c-.23.4-.11.94-.47 1.33s-.78.25-1.21 0a2 2 0 0 0-1.44-.13c-.46.34 0 1.15-.2 1.6s-.87.34-1.34.38c-.28 0-.22 0-.4.07a4.28 4.28 0 0 0-.46 1.36c-.14 1.23.36 1.81 1.62 1.8h3c1 0 1.87-.2 2.84-.2h3.88c1.6 0 3.18.21 4.79.2 3.35 0 6.66.06 10 .19.59 0 1.14.2 1.73.23h5.89a17.7 17.7 0 0 1 6.07.6" transform="translate(133.73 -10.38)"/>
                        <g class="cls-16">
                            <path class="cls-9" d="M378.82 282.18c-.36-.57-.69-1-.41-1.65s1-1.07 1.06-1.69c.16-.95-.42-.45-.9-.69-.29-.14-1.16-1.08-1.12-1.35-.31 0-.74.39-1 .28s-.14-.74-.28-1c-.31-.55-.81-.33-1.33-.5-.77-.26-.35-.32-1.13-.07-1.39.44-1.62-.72-2.79-1.22a1.86 1.86 0 0 0-1.27-.06c-.43.11-.62.5-1.11.08-.66.51-1.28.05-1.92 0-.41-.06-.45.09-.85-.12s-.24-.39-.66-.44c-.74-.08-1.16.81-1.71 1.1-1 .54-1.41 0-2.3-.44-1.05-.56-1 .47-1.86.43s-1.68-1.37-2.34-.56c-.23.29 0 .56-.4.82a2 2 0 0 1-.74.24 11.32 11.32 0 0 0-1.65.39c-.7.3-1.27 1.05-2 1.07s-.43-.27-.85-.42a1.19 1.19 0 0 0-.62 0c-.79.4 0 1.52-1.12 1.58a3 3 0 0 1-.71-.14c-.18-.06-.58-.31-.72-.33-1.69-.18-1.32 1.89-2.84 2.12a4.45 4.45 0 0 0-1.83.33c-1 .58-.8 1.18.31 1.54 3.24 1.05 6.8-.18 10.1 0a31.14 31.14 0 0 1 4.63.31 19.26 19.26 0 0 0 2.25.64A10.76 10.76 0 0 0 363 282a22.36 22.36 0 0 1 5.17 0 12 12 0 0 0 2 .21c.64-.05 1.27-.21 1.93-.24 2.24-.11 4.48.09 6.71.13" transform="translate(133.73 -10.38)"/>
                        </g>
                        <path class="cls-9" d="M299.94 248.47c-.46.83 0 1.75 1 1.47 0-.36.06-1.18.63-.8s0 .86.14 1.27c.3.75-.21.35.45.89.5.41.69-.51 1.19.23s-.86 2.05.74 2.46c1 .26 1.32-1.13 2-1.92.28-.34.85-.25 1.3-.19a1.08 1.08 0 0 1 1.33-1.18c.75.1-.08 1.55 1 .38.62-.67.17-1.22 1-1.76a4.07 4.07 0 0 1 2.31-.39c.48.22.52 1 .64 1.49s-.59.37-.38.89 2 .68.69 1.62c.47 1 1.35 1.65.92 3a1.33 1.33 0 0 1 .84 2.12c-.4.45-1.59.08-1.94.85-.2.45.34.72.27 1.09 0 0 .35.4.2.74s-.73.73-.76.8a2.44 2.44 0 0 0 .17 1.25c.07.27-.21.45-.08.78s1 .06 1 .43c0 .75-1 .74-1.43 1.06-1.8 1.33.21 3.09-.54 4.94-.43-.22-.88-.48-1.3-.75-.31.7-.36 2.51-1.22 2.94-.56.29-1.09-.58-1.77-.22-.89.48-.43 1.74-1.5 2.17s-2.64-.24-2.09-1.44a6.24 6.24 0 0 0-2.11-.05c-.5.13-.65.59-1.05.72-1.39.47-1.38-.19-2.36-.61-1.94-.82-1.27-.23-1.63-2-.28-1.38-.2-.89-1.35-.48-.67.24-2.28.94-3 .61a11.87 11.87 0 0 1-2.6-2.84c0 .06-.23-1.36-.23-1.35-.17-1.53-.56-.64.52-1.49.67-.53 1.16.28 1.48-1a1.64 1.64 0 0 0-1.17-1.87c.35-1.82 1.15-1.28-.53-2.46-.24-.16-.95-.24-1.05-.53-.22-.65.54-.69.55-1 .07-1.65-.82-4.66 2.13-4.49 1.2.07 2.08 2.25 2.93.19a6.41 6.41 0 0 0 0-2.35c-.14-.76-.88-2.62.88-2.45.82.09 2.21 2.39 2.12.56-.06-1.15 1.38-3.1 1.78-1.31" transform="translate(133.73 -10.38)"/>
                        <g class="cls-49">
                            <path class="cls-9" d="M307.37 272.19a4 4 0 0 1 1.95-1.49c.35-.13.71-.15 1-.45s.18-.72.22-1.13a3 3 0 0 1 .17-.89 5.81 5.81 0 0 0 .59-1.23 3.61 3.61 0 0 0-.45-2.1 2.86 2.86 0 0 1-.05-2.31 6 6 0 0 0 0-2c0-.49.23-.69.37-1.13a1.45 1.45 0 0 0-.5-1.32 2.24 2.24 0 0 0-2.49-.7 6.51 6.51 0 0 0-1.44 1.11 4.19 4.19 0 0 1-2.42.44h-2.27c-.95 0-1.39 0-1.84.93-.76 1.54-2.92.84-4.07 2a5 5 0 0 0-1.17 3.77 6.2 6.2 0 0 0 .59 1.81c.32.68 1 .82 1.72 1a6.86 6.86 0 0 1 2.13.76c.59.42.51.89.75 1.46s1.14.53 1.68.61a2.15 2.15 0 0 1 1.42.51 2.1 2.1 0 0 0 1.41.51 6.15 6.15 0 0 1 1.06.15c.36.1.81.33 1.17.12.19-.11.27-.4.45-.54s.42-.16 0 .11" transform="translate(133.73 -10.38)"/>
                        </g>
                        <path class="cls-9" d="M306.8 274.47c-.1 1.86.86 6.76-1.4 7.07-.79-1.83 0-7.39-.53-9.32-.61-2.41-4.17-5.43-5.36-6.44 2.52-.3 5.82 3.79 6.37 5.77.34-2.08.72-5 3.32-6.78-1.53 2.13-2.29 7.47-2.4 9.7" transform="translate(133.73 -10.38)"/>
                    </g>
                </g>
            </g>
            <path d="M334.9 189.49a153.68 153.68 0 1 1-307.36 0m0 0a153.68 153.68 0 1 1 307.36 0" transform="translate(133.73 -10.38)" style="stroke:#fff;stroke-linecap:round;stroke-width:3.15px;stroke-miterlimit:10;fill:none"/>
            <path class="cls-73" d="M18.91 156.93h38.82v1.49H39a5.7 5.7 0 0 1 2.53 5.12v38.15c0 3.2.29 6.68 1.85 6.68v.52c-2.82 0-8.16-1-8.16-6.68v-38.15a17.22 17.22 0 0 0-.67-5.64H18.91zm51.51 44.76c0 3.2.3 6.68 1.86 6.68v.52c-2.82 0-7.42-1-7.42-6.68v-21c0-3.2-.3-6.68-1.86-6.68V174c2.82 0 7.42 1 7.42 6.68zm-3.11-44.76a3.72 3.72 0 1 1-3.72 3.72 3.51 3.51 0 0 1 3.72-3.72m12.02 57.9c0-4 5.94-6.16 11.73-5.94v.52a6.07 6.07 0 0 0-5.79 6.16c0 4.61 3.56 7.21 9.79 7.21 7 0 10-4.38 10-8.69 0-11.58-19.3-5-19.3-14.1 1.63-.82 4.83-3.05 7.05-4.23-7.86-.67-11.8-5.13-11.8-11.21 0-8.24 7.42-10.91 14.48-10.91 1.78-3 7.49-6.76 11.87-6.76 2.67 0 4.38 1.19 4.38 4a21.8 21.8 0 0 0-6.16-.89c-3.64 0-7 1-9 3.71 7.71.59 12.32 5.64 12.32 10.84 0 6.6-4.53 11.28-13.88 11.28H94c-1.56 1-3.26 2.52-3.26 3.19 0 4.08 19.89-.15 19.89 13.21 0 6.76-5 11.66-15.52 11.66-9.57 0-15.73-3.42-15.73-9.06m7.57-30.28c0 6 2.37 10.17 8 10.17s7.94-4.16 7.94-10.17c0-5.05-3-9.8-8-9.8s-7.94 3.86-7.94 9.8m44.63-10.9c8.61 0 12.55 6.6 12.55 14.47h-22c-.07.74-.07 1.49-.07 2.3 0 9.58 3.86 15.29 10.69 15.29 4.23 0 7.72-2.3 10.69-5.49l.44.37c-3.11 4.75-8 8.69-14.17 8.69-8.32 0-13.22-6.69-13.22-17.3s5.57-18.33 15.07-18.33m9.23 13.36c-.3-6.91-3-12.25-9.36-12.25-5.27 0-8.46 4.75-9.2 12.25zm9.27-12.47V174c2.6 0 6.61.81 7.35 5.27 2.15-4.68 8.09-8.09 15.29-3.57l-.22.52c-8.84-3.86-15 4.38-15 13.07v12.39c0 3.2.3 6.68 1.86 6.68v.52c-2.82 0-7.42-1-7.42-6.68v-21c0-3.2-.3-6.68-1.86-6.68M179 157.45v-.52h28.35v1.49h-21.66a3.1 3.1 0 0 1 1.48 2.67V177H203v1.48h-15.83v23.23c0 3.2.3 6.68 1.86 6.68v.52c-2.82 0-8.17-1-8.17-6.68v-38.17c0-3.19-.29-6.61-1.85-6.61m115.5 16.18c5 0 8.17 1.86 10.25 5v-14.87c0-3.19-.3-6.68-1.86-6.68v-.52c2.82 0 7.42 1 7.42 6.68v38.45c0 3.2.3 6.68 1.86 6.68v.52c-2.45 0-6.31-.74-7.2-4.75-2 3.2-5.2 5.12-10.54 5.12-10.54 0-14.85-7.42-14.85-18 0-9.06 5.13-17.6 14.92-17.6m-.07 34.52c6.09 0 9.57-5.19 10.32-13.06v-7.28c-.67-8-4.75-13.06-10.17-13.06-6.16 0-9.06 7.94-9.06 16.48 0 10 1.93 16.92 8.91 16.92M261.38 234.16c-7.89-6.41-9.25-8-11.68-11.92s-6.9-7.16-10.66-7.14c-6.94 0-9.41 7.17-13.16 11.07-4.29 4.47-14.88 8.38-11.74 16.65s16.13 0 25.81 2.25 8.45 1.84 15.87 3.55 14.44-7.26 5.56-14.46m-53.05-27.1c3.76 3.23 8.24 8.08 7 14.72-1 5.39-6.71 8.25-11.43 4.73-2.55-1.9-7.32-9.79-6.07-16.76s7.11-5.59 10.48-2.69m27.57-29.29c3.37 8.28 6.58 19.77-.85 29.42-6 7.84-17.59 7.73-22.27-1.82-2.53-5.15-3.69-21.75 4.07-31.93s16-3.12 19 4.33m36.36 32.87c-4.22 2.59-9.42 6.67-9.26 13.42.13 5.48 5.33 9.21 10.54 6.48 2.82-1.48 8.77-8.51 8.64-15.6s-6.13-6.64-9.92-4.3m-23.47-31.08c-4.81 7.54-10 18.26-4.48 29.09 4.52 8.81 15.91 10.78 22.23 2.24 3.42-4.62 7.56-20.73 1.77-32.15s-15.19-6-19.52.82" transform="translate(133.73 -10.38)"/>
            <g class="cls-74">
                <path class="cls-73" d="M257.77 168.63s8.18-2.87 8.43-9.27 2.57 11.77 1.33 12.63-.52-4.1-9.76-3.36" transform="translate(133.73 -10.38)"/>
            </g>
            <g class="cls-74">
                <path class="cls-73" d="M219.13 166.39s6.72-5.47 4.79-11.58 6.41 10.21 5.54 11.44-1.89-3.69-10.33.14" transform="translate(133.73 -10.38)"/>
            </g>
            <g class="cls-74">
                <path class="cls-73" d="M196.15 206.38s2.07-5.68-1.28-8.64 7.49 3.81 7.4 4.86-2.44-1.53-6.12 3.78" transform="translate(133.73 -10.38)"/>
            </g>
            <g class="cls-74">
                <path class="cls-73" d="M277.33 206.72s6-.69 7.15-5-.07 8.39-1 8.79.28-2.88-6.11-3.79" transform="translate(133.73 -10.38)"/>
            </g>
            <path class="cls-73" d="M316 203.18c2.36 3.18 6.65 4.95 10.94 4.95 4.95 0 8.28-2.36 8.28-6.28 0-10-18.48-5.92-18.48-17.6 0-5.69 4.66-10.13 11.75-10.13a12.86 12.86 0 0 1 10.65 5.25l-.52.37a12.08 12.08 0 0 0-9.39-4.14c-4.66 0-7.69 2.37-7.69 6.29 0 9.9 18.49 5.69 18.49 17.74 0 5.55-4.29 10-11.61 10a16.13 16.13 0 0 1-12.94-6.06zm-65.91 58.45a1.53 1.53 0 0 1-.73-.8 2.33 2.33 0 0 1-.21-.68c0-.16 0-.24-.12-.24h-.06v-.12c-.05-.16-.09-.32-.2-.32-.12 0-.14.14-.15.21a1.29 1.29 0 0 1 0-.21c0-.15-.05-.31-.17-.31s-.15.12-.17.19a.43.43 0 0 1 0 .05.48.48 0 0 1-.09-.24c0-.14-.06-.29-.19-.29a.13.13 0 0 0-.1 0 .42.42 0 0 0-.06.28v.06l-.07-.06c-.11-.09-.19-.16-.27-.16s-.11 0-.12.14a.7.7 0 0 0 .13.38c0 .06.08.15.07.18h-.16a1.69 1.69 0 0 0-1.05.62 4.06 4.06 0 0 1-.58.6 3.26 3.26 0 0 0-1 1.19 16.88 16.88 0 0 0-.5 1.68 10.45 10.45 0 0 1-.63 2c-.57.94-2 1.41-4.14 1.41-.67 0-1.27-.05-1.62-.08h-.29a1.34 1.34 0 0 1-.75-.57c-.32-.54-.86-1.83-1.38-3.08-1-2.36-1.31-3.1-1.52-3.1a.23.23 0 0 0-.2.26l-.09-.13c-.29-.48-.62-.74-.94-.74a.56.56 0 0 0-.4.17 1.15 1.15 0 0 0-.37.61.56.56 0 0 1-.19.32 1 1 0 0 1-.25.09c-.3.07-.75.18-.78.68a1.51 1.51 0 0 1-.34 1 .8.8 0 0 0-.18.82c.07.33.07.42-.29.95s-1.45 2.79-.79 3.8c.22.33.15.65 0 1.13a6.18 6.18 0 0 0 .45 4.27 6.49 6.49 0 0 0 2.26 2.64l.32.24a5.31 5.31 0 0 0 2.92 1.06 2.71 2.71 0 0 0 .71-.1c.23-.07.51.18.88.52a5.34 5.34 0 0 0 2.32 1.43 8.9 8.9 0 0 1 .23.88c0 .12-.33.3-.67.49s-.36.28-.33.39.11.12.24.08h.09a1.09 1.09 0 0 1 .4-.08 1.44 1.44 0 0 1 .39.05.55.55 0 0 1 .41.25.61.61 0 0 0 .4.26l.3.08c.41.09.88.2 1 .49a.92.92 0 0 1 0 .09c0 .05.05.12.13.12h.08a.41.41 0 0 0 .24-.24.33.33 0 0 0 0-.29 1 1 0 0 0-.37-.35 2.38 2.38 0 0 0 .39 0 4.7 4.7 0 0 1 1.23.2 2.66 2.66 0 0 1-.6.48c-.22.15-.34.3-.3.42s.13.11.25.06h.09a1.08 1.08 0 0 1 .51-.13h.27a.57.57 0 0 1 .43.22.65.65 0 0 0 .42.22l.31.05c.42.06.9.12 1.07.4v.08s.05.11.13.11h.09a.4.4 0 0 0 .21-.26.31.31 0 0 0-.05-.28 1.26 1.26 0 0 0-.4-.32h.72a4.14 4.14 0 0 1 1.14.15h.15a.08.08 0 0 0 .07-.12c-.09-.18-.25-.37-.85-.56a4.71 4.71 0 0 0-.89-.13l-.49-.05a.84.84 0 0 1 .2-.05c.08 0 .14 0 .14-.09s-.06-.09-.35-.15a1.24 1.24 0 0 0-.33 0 2.34 2.34 0 0 0-.33 0 .39.39 0 0 1-.21 0c-.12-.12-.78-1.56-1.35-2.82l.84-.34.35-.09a8.33 8.33 0 0 0 5.54-7c.46-4.4-.46-6.08-.77-6.63-.41-.76-.74-1.72-.4-2.15a1.57 1.57 0 0 0 .27-1.09.72.72 0 0 1 0-.13 3.61 3.61 0 0 1 .53.08 4.17 4.17 0 0 0 .43.06.09.09 0 0 0 .1-.06v-.1m-9.78 18a7.64 7.64 0 0 0 1.92-.27c.29.74.59 1.49.77 2l-.2-.1a4.75 4.75 0 0 0-.88-.21l-.48-.09h.2c.08 0 .14 0 .15-.08s0-.09-.34-.18a1.48 1.48 0 0 0-.46-.08h-.41a7.28 7.28 0 0 1-.38-.93h.11M147.74 268a.36.36 0 0 0-.24.43 1.21 1.21 0 0 1 .05.18 1 1 0 0 1 0 .24 1.38 1.38 0 0 1-.08.27 1.62 1.62 0 0 1-.1.18v.05l-.06.07a.41.41 0 0 1-.1.09l-.2.11a1.11 1.11 0 0 1-.3.08 2 2 0 0 1-.35 0 1.56 1.56 0 0 1-.37-.1 1.43 1.43 0 0 1-.27-.15l.1-.06a1.74 1.74 0 0 0 .67-.75 2 2 0 0 0 .15-.6 1.32 1.32 0 0 0-.08-.52 1.25 1.25 0 0 0-.31-.46 1.28 1.28 0 0 0-.47-.26 1 1 0 0 0-1 .26 1.47 1.47 0 0 0-.36.92 2.47 2.47 0 0 0 .13.93h-.14l-.19-.1h-.06l-.07-.06-.1-.1-.06-.07a1.36 1.36 0 0 1-.12-.45c0-.06 0-.08.07-.1a.71.71 0 0 0 .53-.79.91.91 0 0 0-.93-.82 3 3 0 0 0-.43 0h-.06a4 4 0 0 0-.33-.24l-1.25-.74-1.13-.74a9.39 9.39 0 0 0-2-1 7.84 7.84 0 0 0-2-.4l-1.11-.07-1.2-.08h-4.63l-1.65-.06h-1.27a5.89 5.89 0 0 0-1 .18 12.42 12.42 0 0 0-1.42.47c-.68.28-1.35.6-2 .93-.28.13-.55.28-.83.42l-1.11.51a13.67 13.67 0 0 0-2 1.15 9.19 9.19 0 0 0-.91.74l-.35.34s-.06.06-.11.05a5 5 0 0 1-.93-.28.61.61 0 0 1-.16-.12l-.13-.15a1.44 1.44 0 0 0-.25-.18.2.2 0 0 0-.3.12.57.57 0 0 0 0 .18 2.08 2.08 0 0 0 0 .25.17.17 0 0 0-.18.2.59.59 0 0 0 0 .17 1.32 1.32 0 0 0 .27.42 4.76 4.76 0 0 1 .5.61 1.46 1.46 0 0 0 .16.19 1.19 1.19 0 0 0 .62.29.36.36 0 0 1 .25.13.19.19 0 0 1 0 .07.74.74 0 0 0 0 .21c0 .16 0 .33.08.49a4.88 4.88 0 0 1 .15.85.77.77 0 0 1-.15.53.36.36 0 0 1-.21.13.27.27 0 0 0-.27.25.07.07 0 0 1-.07.06.25.25 0 0 0-.24.11.17.17 0 0 1-.17.08h-.25c-.19 0-.21.05-.17.2s.09.29.13.44a.77.77 0 0 1 0 .15v.47a.47.47 0 0 0 .52.48.3.3 0 0 1 .21 0 .69.69 0 0 1 .25.26l-.13.1c-.06.06-.07.12 0 .18a.88.88 0 0 0 .55.27 1.5 1.5 0 0 0 .47 0 1.62 1.62 0 0 1 .79 0 5.56 5.56 0 0 0 1.46.29 3.62 3.62 0 0 0 .73 0 3 3 0 0 0 1-.28.58.58 0 0 1 .48 0l.42.21a.67.67 0 0 0 .53.11c.11 0 .15 0 .22.09a1.2 1.2 0 0 1 .19.69v1.04a.37.37 0 0 1 0 .11c-.08.27-.15.55-.24.82a1 1 0 0 1-.36.56.71.71 0 0 0-.17.21l-.09.19a2.41 2.41 0 0 1-.38.54l.19.09a1.67 1.67 0 0 0 1.12-.12.35.35 0 0 1 .3 0 .17.17 0 0 0 .21-.08.6.6 0 0 0 .06-.11 1.71 1.71 0 0 0 .09-.3c0-.21.09-.41.13-.61a2.48 2.48 0 0 1 .31-.89 1.74 1.74 0 0 0 .22-.48v-.21a.31.31 0 0 1 .28.22l.09.32a.81.81 0 0 0 .27.45.81.81 0 0 1 .19.18 1.07 1.07 0 0 0 .77.48l.12.09.57.29h.05a1 1 0 0 0 .09-.13.85.85 0 0 0-.14-.83 1 1 0 0 0-.19-.17.15.15 0 0 1 .07 0l.18-.05a.11.11 0 0 0 .07-.17.53.53 0 0 0-.29-.26l-.25-.08-.06-.05a2.43 2.43 0 0 0-.14-.2 1.88 1.88 0 0 0-.23-.16.17.17 0 0 1-.08-.13.38.38 0 0 1 .19-.39l.24-.15a1.41 1.41 0 0 0 .52-.51.48.48 0 0 1 .21-.19 3.28 3.28 0 0 0 .85-.58.22.22 0 0 1 .13-.08l.26-.05a5.06 5.06 0 0 1 1 0l.75.09 1 .12.87.08a7.36 7.36 0 0 0 1.05 0 5.89 5.89 0 0 0 .84-.14 8 8 0 0 1 1.63-.27 4.82 4.82 0 0 1 1.2.08 1.55 1.55 0 0 1 .52.19.1.1 0 0 1 .05.09c0 .24 0 .49.09.73a4.69 4.69 0 0 1 .07.92 1 1 0 0 1-.12.45c-.23.41-.47.81-.69 1.22a2 2 0 0 0-.25.62v.09c0 .03-.14.29-.22.43s-.1.14-.15.21l.51.08a1.94 1.94 0 0 0 .68 0 .55.55 0 0 0 .44-.34l.11.08a.18.18 0 0 0 .27-.17 1.77 1.77 0 0 1 0-.32 2.83 2.83 0 0 1 .2-.81 3.56 3.56 0 0 1 .87-1.19.53.53 0 0 1 .15-.08l.28-.08a.33.33 0 0 0 .24-.2 3.65 3.65 0 0 0 .14-.35v-.34a.46.46 0 0 1 .38.16 2.53 2.53 0 0 0 .13.22 1.86 1.86 0 0 0 .19.22 1.58 1.58 0 0 1 .12.15 2.26 2.26 0 0 1 .17.85v1.16a.42.42 0 0 1-.05.22l-.25.44c-.07.12-.06.14.08.16a2.28 2.28 0 0 0 1-.05.62.62 0 0 0 .48-.38l.12.05c.09 0 .15 0 .16-.11a.7.7 0 0 0-.05-.35 4.36 4.36 0 0 1-.36-1.18 1.74 1.74 0 0 1 0-.6 1.86 1.86 0 0 1 .24-.49.25.25 0 0 0 .07-.23.09.09 0 0 1 0-.1.53.53 0 0 0 .1-.47 2.32 2.32 0 0 0-.16-.36 2.1 2.1 0 0 1-.26-.62.31.31 0 0 1 0-.1c.22-.39.45-.76.68-1.14a4.71 4.71 0 0 0 .49-1c.11-.35.2-.71.3-1.07a6.84 6.84 0 0 0 .26-1.68 1.66 1.66 0 0 0 .39.15 1.68 1.68 0 0 0 .59.07l.11.12a2 2 0 0 0 .86.56 1.93 1.93 0 0 0 1.91-.36 1.71 1.71 0 0 0 .48-1.75.36.36 0 0 0-.43-.24m-2.28.66-.08.08h-.06a1 1 0 0 1-.17.1v-.07a2.19 2.19 0 0 1-.14-.5 1.61 1.61 0 0 1 0-.38 1.05 1.05 0 0 1 .06-.24.41.41 0 0 1 0-.09.12.12 0 0 0 .05-.05h.22a.2.2 0 0 1 .11 0l.09.05.06.1a.83.83 0 0 1 0 .15.74.74 0 0 1 0 .21 2 2 0 0 1-.06.23l-.12.2a.3.3 0 0 1-.08.08m71.21 3.6 2.12-1.6a1.37 1.37 0 0 0-.22-.3q-2.24-1.71-4.48-3.41a11.75 11.75 0 0 0-4.92-1.79 2.58 2.58 0 0 1-.89-.48c-.67-.48-1.3-1-2-1.44a3.29 3.29 0 0 0-1.25-.14s0 .18-.09.39l-.64-.39v.7l-.55-.1c-.07.22-.14.46-.23.73l-.63-.27c-.07.23-.14.45-.22.73l-.71-.22c-.05.64-.4.66-.65.51-.39.15-.61.25-.84.32-.79.27-1.59.51-2.37.8-1 .37-2 .78-3.12 1.23.08.5.17 1.13.27 1.79a3.21 3.21 0 0 1-2.58-.58 26.76 26.76 0 0 0-2.8-1.93 13.35 13.35 0 0 0-2-.77l-.09.21a6.24 6.24 0 0 1 .41 1.09 17.17 17.17 0 0 1 .26 2v1.8a5.19 5.19 0 0 1-.56 2.82c-.09.21-.18.42-.37.84a7 7 0 0 0 1.57-.32 25.82 25.82 0 0 0 3.48-1.87c1.52-1 2.92-.44 4.37.05 0 0 .05.11.13.27-1.41.1-1.28 1.08-1.24 2.05a8.11 8.11 0 0 1-.15 1.3 4.76 4.76 0 0 0 2.38-.82c.35-.2.64-.54 1.12-.33.09 0 .28-.05.38-.13a1.55 1.55 0 0 1 1.78-.11 11.5 11.5 0 0 0 5.39.72h.73c-.85.38-.7.88-.49 1.45.27.73.44 1.5.69 2.36a2.33 2.33 0 0 0 .51-.6c.43-1 .87-2 1.21-3a.73.73 0 0 1 .67-.61c2.12-.37 4.24-.73 6.35-1.18a12.28 12.28 0 0 0 2.26-.88c.14-.06.23-.24.34-.37-.15-.12-.29-.32-.46-.34-.54-.09-1.09-.11-1.83-.18m-38.42-3.58c-.29-.7-.55-1.42-.87-2.11a2.84 2.84 0 0 0-1.27-1.27 5.68 5.68 0 0 0-.95-.41.24.24 0 0 1-.14-.26c.05-.26.11-.54.15-.82a3 3 0 0 0 0-.52v-.71a4.47 4.47 0 0 0-.18-1.2c-.07-.25 0-.53-.1-.78s0-.56-.23-.77c0-.4-.26-.68-.39-1a1.42 1.42 0 0 0-.74-.82 2.73 2.73 0 0 1-.4-.23.14.14 0 0 0-.22.08c-.11.34-.23.65-.3 1a2.62 2.62 0 0 0-.19 1 2.59 2.59 0 0 1-.18.83c0 .14 0 .29-.06.44s-.08.13-.14.05a2 2 0 0 0-.49-.51c-.32-.2-.56-.5-.88-.69a9 9 0 0 0-1.54-.79 8.6 8.6 0 0 0-1.68-.32 1.14 1.14 0 0 0-.49.09.16.16 0 0 0-.1.22c.17.32.32.62.49.91q.42.72.87 1.41c.18.26.39.5.57.76s.38.53.58.78.31.32.46.49a6.55 6.55 0 0 1 .49.56 3.76 3.76 0 0 1 .66 1.82.19.19 0 0 0 0 .08c.21.41 0 .68-.31.93 0 0 0 .11-.06.17a1.51 1.51 0 0 1-.13.29 1.45 1.45 0 0 0-.25.83c0 .19-.07.37-.1.55v.09a.62.62 0 0 1-.06.26 2.33 2.33 0 0 1-.61 1c-.09.06-.11.09 0 .08h.12a.64.64 0 0 1-.17.08h-.05c-.1 0-.13.08-.07.09s0 .06-.08.09l-.26.09c-.1 0-.14.09-.09.11s0 .06-.08.08-.16.06-.14.09-.06.07-.17.09a4.86 4.86 0 0 1-.55.1h-.19a1.53 1.53 0 0 0-.37-.08 15.34 15.34 0 0 0-2.08.29l-.37.05h-.45c-.11 0-.18 0-.16.05s-.05.05-.15.09l-1.39.46c-.1 0-.15.08-.12.09s0 .07-.12.11a2.69 2.69 0 0 0-.73.32c-.23.17-.48.3-.7.48a3.8 3.8 0 0 1-.89.41h-.1c-.05 0-.05.06 0 .08s0 .1-.06.16l-.55.4c-.08.07-.12.13-.09.15s0 .07-.11.12l-.18.1c-.1.05-.17.1-.16.11h.13c.07 0 .07 0 0 .11-.33.32-.65.63-1 .93l-.11.1c-.06.05-.05.08 0 .05s.1 0 .05.12c-.16.25-.32.49-.49.73a4.83 4.83 0 0 1-.37.42h.08c.08 0 0 .06 0 .14l-.31.43c-.06.08 0 .12 0 .07s.12 0 .07.09a3.12 3.12 0 0 0-.36 1 1.6 1.6 0 0 1-.2.55v.12c0-.03.07 0 .05.12-.09.49-.17 1-.25 1.44v.31c0 .1 0 .16-.07.24s0 .17 0 .16v.17a1.3 1.3 0 0 1-.21.77c-.07.08-.1.12 0 .12s0 .07 0 .16a.18.18 0 0 0 0 .07c-.07.08-.08.14 0 .13h.08v.08a.87.87 0 0 0 .52 1c.32.14.54.46.95.42.13 0 .27.13.41.2s0 0 0-.05.07 0 .17 0l.22.05h.31a8.42 8.42 0 0 0 2.6.19h1.22a2.86 2.86 0 0 0 .42 0l.92-.14c.34-.06.68.07 1-.13s.38-.21.45-.36.12-.21.22-.23l.54-.14c.25-.08.46-.17.51-.49a.5.5 0 0 0-.19-.57.09.09 0 0 1 0-.06c0-.05-.1-.09-.2-.1h-.08a.11.11 0 0 1-.09-.18l.09-.15c.05-.09.11-.16.13-.15a.49.49 0 0 1 0 .16c0 .07 0 .06.09 0l.06-.13a.6.6 0 0 1 .11-.16v.15c0 .08.05.05.09 0v-.1c0-.1.08-.1.09 0s0 .08.07 0a.79.79 0 0 1 .44-.42c.29-.13.57-.28.86-.4a.21.21 0 0 1 .2.05c.14.17.26.36.4.54s.29.37.45.54.4.45.6.67.05 0 .06 0 .07 0 .12.12a1 1 0 0 0 0 .1c0 .1.09.13.09.06s.07-.05.13 0l.46.67c.06.09.11.1.11 0s0-.05.1 0l.26.39c.06.08.1.09.09 0s0-.15 0-.16.08 0 .14.13l.11.14c.06.09.13.13.15.1a.08.08 0 0 0 0-.06s.08 0 .16.1l.18.13c.09.06.15.07.15 0s.07-.06.16 0a1.25 1.25 0 0 0 .25.09 4.34 4.34 0 0 1 .63 0 1.12 1.12 0 0 0 1-.28.83.83 0 0 1 .5-.18.56.56 0 0 0 .33-.15l.31-.29a.27.27 0 0 0 .06-.3.89.89 0 0 0-.5-.52c-.1 0-.15-.06-.1-.1s0-.07-.1-.07h-.28.1c.1 0 0-.06-.08-.11h-.09c-.09-.05-.13-.09-.09-.1s0-.06-.08-.11l-.53-.29h-.12c-.07 0-.08-.06 0-.07s.05-.06 0-.09-.05-.06 0-.07.05-.05 0-.09l-.24-.1c-.1 0-.15-.12-.1-.17s.07-.08.06-.11a.65.65 0 0 0-.09-.16c-.06-.09-.08-.16 0-.16s.05 0 0-.09v-.1a2.36 2.36 0 0 0-.13-.61.52.52 0 0 1 0-.61c.07-.08.15-.12.17-.09s.06 0 .1-.09.08-.12.1-.09.07 0 .14-.09.11-.13.17-.2.14-.12.15-.08.06 0 .1-.1a5.36 5.36 0 0 0 .74-1.37l.07.05s.07 0 .1-.14l.48-1.66a1.54 1.54 0 0 1 .17-.34 1.79 1.79 0 0 0 .4-.86.82.82 0 0 0-.15-.33 1.06 1.06 0 0 1-.1-.55 4.45 4.45 0 0 1 0-.73v-.35c0-.45.41-.56.75-.7l.34-.13a.44.44 0 0 0 .15-.08 2.25 2.25 0 0 0 .31-.37 1.47 1.47 0 0 1 .32-.29 5.91 5.91 0 0 0 .54-.57 4.91 4.91 0 0 1 .48-.43.5.5 0 0 0 .11-.7 4.83 4.83 0 0 1-.41-.74m-107.15-.77c.06.34.15.68.19 1a14.61 14.61 0 0 1 .2 2.27c0 1-.25 1.92-.39 2.88l.16-.06c.2.3.39.61.61.93-.09.28-.19.61-.31 1l.29-.24c.08.45.16.94.26 1.5l.24-.2.12.65H72c0-.17.09-.34.13-.51h.12a23.82 23.82 0 0 1 1.52 5.49s-.11.34.13.49a8.54 8.54 0 0 0 2.94 0c.22-.17-.52-1-1.07-1.27-.18-.72-.38-1.34-.49-2.07a16.5 16.5 0 0 1-.19-2.23 3.43 3.43 0 0 1 .66-2 7.7 7.7 0 0 0 .74-1.56c.22-.56.33-1.17.55-1.74s.42-.48.82-.15a5.6 5.6 0 0 0 1.28.92 9.11 9.11 0 0 0 1.88.4 5.2 5.2 0 0 0 1.11.15c1.13 0 2.25-.12 3.38-.15a.86.86 0 0 1 1 .75c.13.75.17 1.52.33 2.27a8.38 8.38 0 0 0 .51 2.23 3.32 3.32 0 0 1 .29 2.55 1.11 1.11 0 0 1-.4.53s-.21 1 0 1.26 1.46.15 2.13.09a7.49 7.49 0 0 0 2.37.15c.67-.21.32-.62.26-.85s-.51-.29-.51-.29c-.09-.18-.4-.25-.44-.44a5.79 5.79 0 0 1 .11-2.55c.28-1.05.48-2.13.77-3.17a2.86 2.86 0 0 1 .59-1c.47-.54 1.3-.67 1.66-1.36a1.9 1.9 0 0 0 1.17-1.44 9.24 9.24 0 0 1 .39-1 7 7 0 0 1 1.91-2.42 1.28 1.28 0 0 1 .89-.37 4.26 4.26 0 0 0 2.5 0h.12a1.83 1.83 0 0 0 1.61-.32c.14-.09.4-.19.4-.28a3.53 3.53 0 0 0-.17-1.22c-.23-.53-.62-1-.89-1.52a1.49 1.49 0 0 1 0-1.19l.29.1a.62.62 0 0 0 .9-.69.74.74 0 0 1 .12-.48c.51-.66.4-1.09-.39-1.4a1.21 1.21 0 0 0-.5-.06c-.32 0-.63.08-.89.11-.17-.23-.26-.5-.44-.59s-.49-.31-.4-.62l-1.54-.57.24-.14v-.12l-1.38.42c0 .28 0 .57-.44.54-.07 0-.16.07-.22.13a.65.65 0 0 1-.88.19.58.58 0 0 0-.46 0 2.77 2.77 0 0 1-1.34.37 3.84 3.84 0 0 0-1.16.25 3.4 3.4 0 0 1-2.61-.29.86.86 0 0 0-.41-.13h-1.76c-.39 0-.78-.08-1.17-.13l-.59-.08a6.46 6.46 0 0 1-1.4-.11 1.72 1.72 0 0 0-1 0 2.86 2.86 0 0 1-1.74 0 33.28 33.28 0 0 0-5.41-1 2.32 2.32 0 0 1-1-.37c-.23-.14-.44-.32-.69-.13a1.52 1.52 0 0 0-.88-.08c-.35.15-.82-.05-1.07.36h-.12a1.52 1.52 0 0 0-1.21.41 1.39 1.39 0 0 1-1.22.33c-.2.25-.16.68-.59.7 0 0-.09.08-.11.13a11 11 0 0 1-.33 1.16 8.06 8.06 0 0 0-.24 2.24 2.51 2.51 0 0 0 0 .67c.17 1 .35 2 .53 3m18.69 11.24h.12c.06.45.15.9.17 1.35a2.54 2.54 0 0 1-.16 1.45 4.2 4.2 0 0 1-.13-2.79m206.45-16.94a5 5 0 0 0-1.3-1.36 5.16 5.16 0 0 1-.61-.43 3.93 3.93 0 0 0-1.05-.72 1.06 1.06 0 0 1-.33-.27c-.16-.18-.3-.4-.48-.58a5.54 5.54 0 0 0-1.73-1.18c-.38-.17-.82-.24-1.09-.64-.07.51.42.61.62.95a.74.74 0 0 1-.18 0l-1-.11c-.32 0-.65 0-1-.05a5.31 5.31 0 0 1-.69-.17l.06.07.06.05a3.83 3.83 0 0 0 1.84.75 2.18 2.18 0 0 1 1.55.81c.1.13.08.23-.09.26a1.1 1.1 0 0 0-.83.6.63.63 0 0 1-.21.22c-.29.22-.6.42-.89.64s-.81.64-1.19 1-.59.66-.91 1a3.14 3.14 0 0 1-2.27.93 17.18 17.18 0 0 1-1.89-.15 1.87 1.87 0 0 0-1.07.19 8.13 8.13 0 0 1-.9.42c-.23.09-.48.1-.71.17a2.72 2.72 0 0 1-1.17 0 11.21 11.21 0 0 1-1.09-.32l-.92-.22c-.22 0-.43-.12-.64-.15s-.66-.08-1-.15-.49-.17-.74-.19c-.56-.05-1.13-.06-1.69-.09h-.2l-1.4-.18a1 1 0 0 0-.81.34c-.22.19-.41.39-.63.58a6.47 6.47 0 0 0-.57.47 10.26 10.26 0 0 1-1.27 1.37c-.32.25-.64.51-1 .74a3.07 3.07 0 0 0-.72.57 5.47 5.47 0 0 0-.69 1.31c-.25.56-.45 1.16-1.09 1.41.08.09.12.16 0 .23-.33.19-.65.39-1 .15h-.14a1.82 1.82 0 0 0 .39.35c.15.08.26.13.16.31l.18.08c-.07.13-.12.23-.19.38.55-.19.63-.17.73.15.16-.05.36-.23.42.16.18-.16.31-.29.47-.41s.16 0 .17 0c.08.22.17.12.27 0a.53.53 0 0 1 .11-.09c.09.16.19.15.3 0a3.15 3.15 0 0 1 .28-.25s.1-.08.13-.07c.24.11.34-.12.4-.23a.49.49 0 0 1 .34-.24.47.47 0 0 1 .06.15 13.12 13.12 0 0 1 .15 1.39 7.14 7.14 0 0 1-.18 2.3 2.53 2.53 0 0 1-1.18 1.65.26.26 0 0 0-.12.15q-.07.5-.12 1l-.12 1.8a5.64 5.64 0 0 1-.32 1.77.25.25 0 0 0 0 .17c.1.31.23.61.3.92a1.75 1.75 0 0 1 .12.88.2.2 0 0 0 .08.13 1.4 1.4 0 0 1 .7.68.63.63 0 0 0 .27.24 2.09 2.09 0 0 0 .55.18 1.56 1.56 0 0 0 1.42-.22c-.32-.3-.62-.59-.93-.87s-.39-.3-.56-.48a2.21 2.21 0 0 1-.48-1.08 4.07 4.07 0 0 1-.09-.79 3.72 3.72 0 0 1 .08-.66c0-.39.11-.78.18-1.16a4.91 4.91 0 0 1 .54-1.27c0-.05.07-.11.1-.11a.19.19 0 0 1 .12.1 5.28 5.28 0 0 1 .31.78 11 11 0 0 1 .31 2.14c0 .5 0 1 .05 1.5a.34.34 0 0 0 .13.22c.17.15.37.27.52.43a1.3 1.3 0 0 1 .34 1 .23.23 0 0 0 .05.17 1.58 1.58 0 0 1 .45.74c.05.15.08.33.27.37a1.91 1.91 0 0 0 .67.14 1.68 1.68 0 0 1 .5 0 .88.88 0 0 0 .65-.22c-.23-.32-.47-.63-.69-.94s-.43-.57-.63-.87-.15-.35-.25-.52a3.51 3.51 0 0 1-.67-1.45c0-.35-.11-.69-.16-1s-.05-.54-.09-.81a3.12 3.12 0 0 1 .1-1.36.7.7 0 0 1 .61-.55.78.78 0 0 0 .33-.16q.35-.25.66-.54c.25-.24.48-.5.71-.75.08-.08.16-.13.28-.05a3.91 3.91 0 0 0 1.85.55 7.68 7.68 0 0 0 2.14-.16 13.85 13.85 0 0 0 1.89-.5c.93-.31 1.84-.68 2.76-1a13 13 0 0 1 1.56-.52c.62-.14.51-.21.64.29.05.68.11 1.36.15 2s0 1.28 0 1.91v.57c0 .57-.06 1.14-.07 1.71a7.87 7.87 0 0 1-.32 1.87c-.08.27.08.44.19.66.1-.11.16-.23.28-.07.23-.12.25.09.31.2.21.39.39.8.63 1.17a.78.78 0 0 0 .5.36 7.79 7.79 0 0 0 1.18-.07s.07 0 .12-.06-.19-.24-.27-.36 0-.11 0-.17.12 0 .16 0a1.33 1.33 0 0 0 1 .06 2.54 2.54 0 0 0 .53-.21 6 6 0 0 1-1-1.41 2.72 2.72 0 0 1-.27-1.29 13.48 13.48 0 0 1 .15-2.37 5.58 5.58 0 0 1 .35-1.45 1.44 1.44 0 0 0 0-1c-.06-.28-.16-.55-.23-.82a2.86 2.86 0 0 1 .16-1.87.51.51 0 0 1 .15-.22 2.13 2.13 0 0 0 .84-.87 1.31 1.31 0 0 0 .15-.5 1.06 1.06 0 0 1 .23-.6 1.15 1.15 0 0 0 .28-.8v-1.47a1.53 1.53 0 0 1 .28-1 3.34 3.34 0 0 0 .5-1c.3-.83.59-1.67.91-2.5a2.1 2.1 0 0 1 .66-.95c.26-.2.47-.19.65.08a2.34 2.34 0 0 0 1.62 1.07 5.25 5.25 0 0 0 1.05 0c.26 0 .29-.15.14-.37 0-.05-.07-.07-.1-.12s-.06-.15-.1-.23l.24-.05c.31 0 .61-.07.92-.08s.48.18.43.42c0 .09-.09.18-.13.27s0 .06 0 .07v.22c0 .08-.17.26-.28.43.25-.05.29 0 .25.17l-.16 1c.16-.13.26-.1.29 0a1 1 0 0 1 0 .35c0 .11-.09.23-.06.33a1.42 1.42 0 0 0 .24.41c0-.11-.12-.25.12-.26 0-.06-.09-.1-.1-.15s-.07-.2 0-.25.09-.35.06-.53 0-.23.12-.28a.12.12 0 0 0 .06-.08.46.46 0 0 1 .11-.35v-.15a.77.77 0 0 1 .08-.27 1.21 1.21 0 0 1 .24-.2.74.74 0 0 1-.25-.83.63.63 0 0 1 .48-.5c.2-.06.25-.15.21-.35s-.1-.35 0-.53a.32.32 0 0 0-.09-.39 3.43 3.43 0 0 1-.55-.6" transform="translate(133.73 -10.38)"/>
        </g>
    </g>
</svg>
