<svg id="Capa_1" data-name="Capa 1" xmlns="http://www.w3.org/2000/svg" viewBox="0 0 1014.51 601.69"><defs><clipPath id="clip-path" transform="translate(386.36 242.44)"><circle class="cls-1" cx="180" cy="180" r="180"/></clipPath><clipPath id="clip-path-2" transform="translate(386.36 242.44)"><path class="cls-1" d="M-104.15 210.23h732.3v71.55h-732.3z"/></clipPath><style>.cls-1{fill:none}</style></defs><path d="M-386.36-63.19a179.25 179.25 0 0 1 179.25-179.25A179.25 179.25 0 0 1-27.86-63.19a179.25 179.25 0 0 1-179.25 179.26A179.25 179.25 0 0 1-386.36-63.19" transform="translate(386.36 242.44)" style="fill:#544573"/><path class="cls-1" d="M387.11 243.19h358.5v358.5h-358.5z"/><g style="clip-path:url(#clip-path)"><g style="opacity:.29"><g style="clip-path:url(#clip-path-2)"><path d="M-90.21 251.72S14.64 223.1 35.56 224.84s53.22 16.85 77.44 17.43 118.64-34.71 135.34-31.88 35.87 20.32 55 20.58 44.46-19.3 62-12.43 112.26 48.58 124.46 46.91 53.45-19.11 69.72-15.63 68.55 32 68.55 32h-355l-377.33-11z" transform="translate(386.36 242.44)" style="fill:#1b1533"/></g></g></g></svg>