<svg id="Capa_1" data-name="Capa 1" xmlns="http://www.w3.org/2000/svg" viewBox="0 0 924.53 601.69"><defs><clipPath id="clip-path" transform="translate(386.36 242.44)"><circle class="cls-1" cx="180" cy="180" r="180"/></clipPath><clipPath id="clip-path-2" transform="translate(386.36 242.44)"><path class="cls-1" d="M-130.16 147.17h668.33v143.66h-668.33z"/></clipPath><style>.cls-1{fill:none}</style></defs><path d="M-386.36-63.19a179.25 179.25 0 0 1 179.25-179.25A179.25 179.25 0 0 1-27.86-63.19a179.25 179.25 0 0 1-179.25 179.26A179.25 179.25 0 0 1-386.36-63.19" transform="translate(386.36 242.44)" style="fill:#544573"/><path class="cls-1" d="M387.11 243.19h358.5v358.5h-358.5z"/><g style="clip-path:url(#clip-path)"><g style="opacity:.22"><g style="clip-path:url(#clip-path-2)"><path d="M-130.16 242.61s42.19-9.2 75.56-33.07 66.28 10.58 94.6 7.59 115.42-68.32 132.85-69.93 104.28 61.71 121 62.88 55-15.85 68.41-15.19 37.53 25.06 51.3 22.74 38.75-24.56 53.27-22.74 71.39 50 71.39 50v46h-668.38z" transform="translate(386.36 242.44)" style="fill:#1b1533"/></g></g></g></svg>